<svg id="BG" xmlns="http://www.w3.org/2000/svg" viewBox="0 0 1214 941"><defs><style>.cls-1{fill:#204056;}.cls-2{fill:#11242d;}.cls-3{fill:#d3dde2;}.cls-4{isolation:isolate;}.cls-5{fill:#53b1da;}.cls-6{fill:#7a98a9;}.cls-7{fill:#fff;}</style></defs><title>htmlcss1-diagram_</title><rect class="cls-1" width="1214" height="941"/><rect class="cls-2" x="222.72" y="148.92" width="240.74" height="254.03"/><rect class="cls-3" x="171.56" y="148.93" width="40.86" height="253.74"/><rect class="cls-2" x="509.24" y="148.92" width="240.74" height="254.03"/><rect class="cls-2" x="794.29" y="148.92" width="240.74" height="254.03"/><g class="cls-4"><path class="cls-5" d="M301.66,104V84.75h6.4a11.46,11.46,0,0,1,3.88.58,5.24,5.24,0,0,1,2.55,1.9,5.51,5.51,0,0,1,.94,3.29,7.76,7.76,0,0,1-.35,2.45,5,5,0,0,1-3.46,3.28,11.77,11.77,0,0,1-3.56.47q-1.78,0-2.9-.1V104h-3.5Zm6-9.86a7.59,7.59,0,0,0,1.89-.21,3.79,3.79,0,0,0,1.26-.54,2.48,2.48,0,0,0,.72-0.81,3.18,3.18,0,0,0,.35-0.94,5.53,5.53,0,0,0,.08-1,2.92,2.92,0,0,0-1-2.41,4.48,4.48,0,0,0-2.88-.83h-2.92v6.73Q305.32,94.15,307.68,94.15Z"/><path class="cls-5" d="M318.17,104V84.8h3.55V104h-3.55Z"/><path class="cls-5" d="M323.75,104l6.73-9.83-6.23-9.37h4L332.77,92l4.66-7.16h3.79l-6.36,9.43,6.7,9.78h-4.1l-4.85-7.47-5,7.47h-3.89Z"/><path class="cls-5" d="M343.5,104V84.8h11.64L355,87.62h-7.95v5h7.55V95.4h-7.55v5.78h8.23L355.17,104H343.5Z"/><path class="cls-5" d="M358.61,104V84.8h3.55v16.38h8L370.09,104H358.61Z"/><path class="cls-5" d="M378,104.27a12.17,12.17,0,0,1-6.23-1.6l0.87-2.82a13,13,0,0,0,2.68,1.1,10.1,10.1,0,0,0,2.83.42,3.89,3.89,0,0,0,2.56-.73,2.58,2.58,0,0,0,.87-2.09q0-1.81-2.41-2.5l-1-.28-1.47-.45q-0.69-.22-1-0.33-3.87-1.36-3.87-5.09a4.76,4.76,0,0,1,1.86-4,7.91,7.91,0,0,1,4.92-1.42,11.94,11.94,0,0,1,6,1.43l-1.08,2.6a11.74,11.74,0,0,0-4.77-1.15,4.22,4.22,0,0,0-2.39.56,2.21,2.21,0,0,0-.86,1.86,2,2,0,0,0,1.59,2.08c0.21,0.08.72,0.25,1.55,0.51l1.6,0.51A8.49,8.49,0,0,1,384.07,95a5.22,5.22,0,0,1,1.13,3.58,5,5,0,0,1-1.94,4.22A8.44,8.44,0,0,1,378,104.27Z"/></g><g class="cls-4"><path class="cls-6" d="M478.73,259.56V257h13.35v2.53H478.73Zm0,5.21v-2.5h13.35v2.5H478.73Z"/></g><g class="cls-4"><path class="cls-6" d="M766.68,259.56V257H780v2.53H766.68Zm0,5.21v-2.5H780v2.5H766.68Z"/></g><g class="cls-4"><path class="cls-5" d="M534.73,104V84.75h6.4a11.46,11.46,0,0,1,3.88.58,5.24,5.24,0,0,1,2.55,1.89,5.52,5.52,0,0,1,.94,3.29,7.75,7.75,0,0,1-.35,2.45,5,5,0,0,1-3.46,3.29,11.77,11.77,0,0,1-3.56.47q-1.78,0-2.9-.11V104h-3.5Zm6-9.86a7.59,7.59,0,0,0,1.89-.21,3.77,3.77,0,0,0,1.26-.54,2.48,2.48,0,0,0,.72-0.81,3.19,3.19,0,0,0,.35-0.94,5.53,5.53,0,0,0,.08-1,2.92,2.92,0,0,0-1-2.41,4.48,4.48,0,0,0-2.88-.83h-2.92v6.73Q538.39,94.15,540.75,94.15Z"/><path class="cls-5" d="M551.15,104V84.8h11.64l-0.14,2.82H554.7v5h7.55v2.82H554.7v5.78h8.23L562.82,104H551.15Z"/><path class="cls-5" d="M566.16,104V84.75h7.12a21.18,21.18,0,0,1,2.52.13,9.31,9.31,0,0,1,2,.48,4.2,4.2,0,0,1,1.56.94,4.12,4.12,0,0,1,.95,1.54,6.59,6.59,0,0,1,.35,2.25,4.84,4.84,0,0,1-3.47,5,14.26,14.26,0,0,1,1.76,3l2.86,5.93h-3.88l-2.24-5q-1.27-2.7-1.57-3.2h-1.48l-3,0V104h-3.51Zm7.44-10.8a4.67,4.67,0,0,0,2.94-.73,2.85,2.85,0,0,0,.89-2.34,2.42,2.42,0,0,0-.9-2.08,4.66,4.66,0,0,0-2.77-.67h-4.08v5.81h3.92Z"/><path class="cls-5" d="M592.86,104.28a8.68,8.68,0,0,1-6.67-2.65,10.32,10.32,0,0,1-2.47-7.32,9.84,9.84,0,0,1,2.58-7.11A8.93,8.93,0,0,1,593,84.52a10,10,0,0,1,5.7,1.56l-1.12,2.69a8.55,8.55,0,0,0-4.51-1.38,5.1,5.1,0,0,0-4.19,1.91,9.47,9.47,0,0,0-.05,10.27,5.16,5.16,0,0,0,4.24,1.82,10.47,10.47,0,0,0,4.79-1.21l0.47,2.78A10.64,10.64,0,0,1,592.86,104.28Z"/><path class="cls-5" d="M601.54,104V84.8h11.64L613,87.62h-7.95v5h7.55v2.82h-7.55v5.78h8.23L613.2,104H601.54Z"/><path class="cls-5" d="M616.64,104V84.8h3.78l4.16,6.45,3.82,5.9,0.67,1,0.68,1q-0.09-4.5-.09-4.67V84.8h3.24V104h-3.83l-8.67-13.5-0.63-1q0.1,3.46.1,4.87V104h-3.23Z"/><path class="cls-5" d="M640.73,104V87.64h-5.6V84.8h14.74v2.85h-5.57V104h-3.57Z"/><path class="cls-5" d="M649.68,104l7.07-19.22h3.87l7,19.22h-3.65L662,98.58h-6.73L653.39,104h-3.71Zm6.52-8.08h4.93q-2.36-7.57-2.43-7.81Z"/><path class="cls-5" d="M678,104.28a8.93,8.93,0,0,1-6.86-2.65,10.2,10.2,0,0,1-2.47-7.25,11,11,0,0,1,1.15-5.15,8.24,8.24,0,0,1,3.4-3.47,10.74,10.74,0,0,1,5.3-1.25,11.44,11.44,0,0,1,6,1.51l-1.15,2.65a10,10,0,0,0-4.79-1.29A5.79,5.79,0,0,0,674,89.28a7.5,7.5,0,0,0-1.67,5.14,8,8,0,0,0,1.48,5.1,5.2,5.2,0,0,0,4.34,1.88,9.18,9.18,0,0,0,3.33-.58V96.36h-4l0-2.79h7.34v9.27a20.79,20.79,0,0,1-3.38,1.09A15.9,15.9,0,0,1,678,104.28Z"/><path class="cls-5" d="M688.68,104V84.8h11.64l-0.14,2.82h-7.95v5h7.55v2.82h-7.55v5.78h8.23L700.35,104H688.68Z"/><path class="cls-5" d="M709.17,104.27a12.17,12.17,0,0,1-6.23-1.6l0.87-2.82a12.94,12.94,0,0,0,2.68,1.1,10.15,10.15,0,0,0,2.83.42,3.88,3.88,0,0,0,2.56-.73,2.58,2.58,0,0,0,.87-2.09q0-1.81-2.41-2.5l-1-.28-1.47-.45q-0.69-.22-1-0.33Q703,93.62,703,89.9a4.76,4.76,0,0,1,1.86-4,7.9,7.9,0,0,1,4.92-1.42,12,12,0,0,1,6,1.43l-1.08,2.6A11.73,11.73,0,0,0,710,87.33a4.22,4.22,0,0,0-2.39.56,2.21,2.21,0,0,0-.86,1.86,2,2,0,0,0,1.59,2.08l1.55,0.51,1.6,0.51A8.52,8.52,0,0,1,715.21,95a5.23,5.23,0,0,1,1.13,3.58,5,5,0,0,1-1.94,4.21A8.44,8.44,0,0,1,709.17,104.27Z"/></g><g class="cls-4"><path class="cls-5" d="M889.56,104V84.8H901.2l-0.14,2.82h-7.95v5h7.55v2.82h-7.55v5.78h8.23L901.23,104H889.56Z"/><path class="cls-5" d="M904.66,104V84.8h4.2l5.81,13.87,5.85-13.87h4.14V104h-3.28V94.52l0.11-5.44L921,90.52l-4.92,12.18h-3l-4.81-12.25L907.75,89l0.12,5.56V104h-3.2Z"/><path class="cls-5" d="M934.19,104.27a12.17,12.17,0,0,1-6.23-1.6l0.87-2.82a12.94,12.94,0,0,0,2.68,1.1,10.15,10.15,0,0,0,2.83.42,3.88,3.88,0,0,0,2.56-.73,2.58,2.58,0,0,0,.87-2.09q0-1.81-2.41-2.5l-1-.28-1.47-.45q-0.69-.22-1-0.33-3.87-1.36-3.87-5.09a4.76,4.76,0,0,1,1.86-4,7.9,7.9,0,0,1,4.92-1.42,12,12,0,0,1,6,1.43l-1.08,2.6A11.73,11.73,0,0,0,935,87.33a4.22,4.22,0,0,0-2.39.56,2.21,2.21,0,0,0-.86,1.86,2,2,0,0,0,1.59,2.08l1.55,0.51,1.6,0.51A8.52,8.52,0,0,1,940.23,95a5.23,5.23,0,0,1,1.13,3.58,5,5,0,0,1-1.94,4.21A8.44,8.44,0,0,1,934.19,104.27Z"/></g><g class="cls-4"><path class="cls-6" d="M286.09,194.4v-7a4.48,4.48,0,0,0-.55-2.52,2.19,2.19,0,0,0-1.93-.79,3.68,3.68,0,0,0-2.23.66,3,3,0,0,0-1.18,1.71,14.67,14.67,0,0,0-.09,1.75v6.14h-1.75v-16l1.75-.1V183q0,0.6,0,1.48a4.8,4.8,0,0,1,3.92-1.83q3.85,0,3.85,4.52v7.23h-1.75Z"/><path class="cls-6" d="M291.67,178.7h1.67V194.4h-1.86V180.65a10.79,10.79,0,0,1-2.59,1.19v-1.75l0.68-.29,0.77-.34,0.65-.33A6.35,6.35,0,0,0,291.67,178.7Z"/></g><g class="cls-4"><path class="cls-6" d="M286.09,237.36v-7a4.48,4.48,0,0,0-.55-2.52,2.19,2.19,0,0,0-1.93-.79,3.68,3.68,0,0,0-2.23.66,3,3,0,0,0-1.18,1.71,14.67,14.67,0,0,0-.09,1.75v6.14h-1.75v-16l1.75-.11V226q0,0.6,0,1.48a4.8,4.8,0,0,1,3.92-1.83q3.85,0,3.85,4.52v7.23h-1.75Z"/><path class="cls-6" d="M289.69,237.36l-0.24-1.72,5.42-6a7.88,7.88,0,0,0,1.05-1.57,12.19,12.19,0,0,0,.74-1.64l0.24-.66a2.72,2.72,0,0,0-.72-2,2.79,2.79,0,0,0-2.05-.72,4.71,4.71,0,0,0-3.5,1.29L290,222.73a6,6,0,0,1,4.24-1.36,4.86,4.86,0,0,1,3.41,1.16,4,4,0,0,1,1.27,3.1c0,0.1-.07.23-0.13,0.39s-0.18.48-.36,1-0.38.93-.58,1.35a15.9,15.9,0,0,1-.77,1.41,7.87,7.87,0,0,1-.95,1.28l-4.43,4.73H299l-0.12,1.62h-9.18Z"/></g><g class="cls-4"><path class="cls-6" d="M286.09,280.33v-7a4.48,4.48,0,0,0-.55-2.52,2.19,2.19,0,0,0-1.93-.79,3.68,3.68,0,0,0-2.23.66,3,3,0,0,0-1.18,1.71,14.67,14.67,0,0,0-.09,1.75v6.14h-1.75v-16l1.75-.1v4.68q0,0.6,0,1.48a4.8,4.8,0,0,1,3.92-1.83q3.85,0,3.85,4.52v7.23h-1.75Z"/><path class="cls-6" d="M293.71,280.57a7.85,7.85,0,0,1-2.5-.37,4.28,4.28,0,0,1-1.6-.85l0.59-1.54a5.53,5.53,0,0,0,3.52,1.16,3.76,3.76,0,0,0,2.5-.78,2.7,2.7,0,0,0,.93-2.19,3.5,3.5,0,0,0-.24-1.34,2.48,2.48,0,0,0-.63-0.92,3,3,0,0,0-1-.57,6.35,6.35,0,0,0-1.26-.3,13.59,13.59,0,0,0-1.49-.11h-0.63v-1.56h0.52a12.15,12.15,0,0,0,1.3-.08,6.16,6.16,0,0,0,1.12-.25,2.87,2.87,0,0,0,.93-0.47,2.17,2.17,0,0,0,.6-0.79,2.74,2.74,0,0,0,.23-1.16q0-2.52-2.88-2.52a6.15,6.15,0,0,0-2,.3,5.09,5.09,0,0,0-1.56.82l-0.59-1.53a7.35,7.35,0,0,1,4.5-1.18,5.48,5.48,0,0,1,2.19.43A4,4,0,0,1,298,266.1a3.49,3.49,0,0,1,.65,2.1,3.85,3.85,0,0,1-.72,2.41,4,4,0,0,1-2,1.35,3.84,3.84,0,0,1,2.3,1.38A4.21,4.21,0,0,1,299,276a4.09,4.09,0,0,1-1.48,3.3A5.72,5.72,0,0,1,293.71,280.57Z"/></g><g class="cls-4"><path class="cls-6" d="M283.75,311.55a4.5,4.5,0,0,1,2.64.78,4.72,4.72,0,0,1,1.67,2.11,7.86,7.86,0,0,1,.56,3.05,8.27,8.27,0,0,1-.55,3.14,4.69,4.69,0,0,1-1.67,2.13,4.53,4.53,0,0,1-2.67.78,4.45,4.45,0,0,1-2.09-.49,4.56,4.56,0,0,1-1.57-1.34l-0.18,1.59h-1.5v-16l1.75-.1V311q0,1.41,0,2.41A4.47,4.47,0,0,1,283.75,311.55ZM283.57,313a3,3,0,0,0-2.55,1.15,5.45,5.45,0,0,0-.89,3.37q0,4.55,3.43,4.55a3.08,3.08,0,0,0,1.5-.35,2.6,2.6,0,0,0,1-1,5,5,0,0,0,.56-1.43,7.88,7.88,0,0,0,.18-1.77,7.73,7.73,0,0,0-.31-2.31,3.33,3.33,0,0,0-1.05-1.61A2.84,2.84,0,0,0,283.57,313Z"/><path class="cls-6" d="M301.21,317.53a6.43,6.43,0,0,1-1.43,4.34,4.92,4.92,0,0,1-3.94,1.66,4.81,4.81,0,0,1-3.86-1.68,7.24,7.24,0,0,1,0-8.65,5,5,0,0,1,3.94-1.66,4.8,4.8,0,0,1,3.87,1.66A6.47,6.47,0,0,1,301.21,317.53Zm-8.84,0a5.41,5.41,0,0,0,.91,3.28,3.08,3.08,0,0,0,2.65,1.23,3,3,0,0,0,2.6-1.23,6.74,6.74,0,0,0,0-6.62,3.44,3.44,0,0,0-5.26,0A5.51,5.51,0,0,0,292.36,317.57Z"/><path class="cls-6" d="M311.62,321.63a4.13,4.13,0,0,1-1.51,1.38,4.68,4.68,0,0,1-5.67-1.11,6.89,6.89,0,0,1-1.29-4.41,6.69,6.69,0,0,1,1.31-4.31,4.27,4.27,0,0,1,3.51-1.64,4.82,4.82,0,0,1,2.16.5,3.51,3.51,0,0,1,1.52,1.34l0-1v-5.07l1.73-.1v16.08h-1.49Zm-3.45.4a3,3,0,0,0,2.58-1.11,5.17,5.17,0,0,0,.84-3.18,6.2,6.2,0,0,0-.81-3.51,3,3,0,0,0-2.63-1.18,2.87,2.87,0,0,0-1.43.35,2.69,2.69,0,0,0-1,1,4.94,4.94,0,0,0-.57,1.42,7.43,7.43,0,0,0-.19,1.76,7.34,7.34,0,0,0,.33,2.33,3.29,3.29,0,0,0,1.06,1.57A2.8,2.8,0,0,0,308.17,322Z"/><path class="cls-6" d="M314.91,311.79h1.86l3.63,9.58,3.23-9.58h1.86q-4.66,12.82-4.81,13.22a6.47,6.47,0,0,1-1.75,2.66,4.13,4.13,0,0,1-2.71.84,7.14,7.14,0,0,1-1.06-.08l-0.11-1.49c0.39,0,.69,0,0.88,0a3.1,3.1,0,0,0,1.8-.44,3.62,3.62,0,0,0,1.1-1.63q0.43-1.1.64-1.7Z"/></g><g class="cls-4"><path class="cls-7" d="M365.74,194.4l-0.24-1.72,5.42-6a7.8,7.8,0,0,0,1.05-1.57,12.17,12.17,0,0,0,.74-1.64l0.24-.66a2.72,2.72,0,0,0-.72-2,2.79,2.79,0,0,0-2.06-.72,4.71,4.71,0,0,0-3.5,1.29l-0.61-1.57a6,6,0,0,1,4.24-1.36,4.86,4.86,0,0,1,3.41,1.16,4,4,0,0,1,1.27,3.1c0,0.1-.07.23-0.12,0.39s-0.18.48-.36,1-0.38.93-.58,1.35a15.73,15.73,0,0,1-.77,1.41,7.85,7.85,0,0,1-1,1.28l-4.43,4.73H375l-0.12,1.62h-9.18Z"/><path class="cls-7" d="M388,190.51h-1.78v3.89h-1.76v-3.89H377.4v-1.6l6.89-10.2h2V189h1.93Zm-3.55-9.42-5.24,7.9h5.24v-7.9Z"/><path class="cls-7" d="M390.47,199.39v-16.5H392l0.17,1.56a4.59,4.59,0,0,1,3.63-1.8,4.43,4.43,0,0,1,2.66.79,4.6,4.6,0,0,1,1.61,2.13,8.65,8.65,0,0,1,.52,3.14,7.75,7.75,0,0,1-.57,3.06,4.8,4.8,0,0,1-1.66,2.11,4.34,4.34,0,0,1-2.56.77,4.53,4.53,0,0,1-2.09-.5,4.27,4.27,0,0,1-1.56-1.32q0.06,1.13.06,2.2v4.25Zm5.1-6.23a2.82,2.82,0,0,0,1.43-.36,2.86,2.86,0,0,0,1-1,5,5,0,0,0,.59-1.43,7.19,7.19,0,0,0,.2-1.74,5.79,5.79,0,0,0-.83-3.24,2.71,2.71,0,0,0-2.42-1.26q-3.34,0-3.34,4.31A6.45,6.45,0,0,0,393,192,2.85,2.85,0,0,0,395.57,193.16Z"/><path class="cls-7" d="M405.89,188.54l-4.06-5.65h2l3.07,4.38,3.08-4.38h2l-4.07,5.68,4.18,5.83h-1.94l-3.24-4.63-3.24,4.63h-2Z"/></g><g class="cls-4"><path class="cls-7" d="M367.73,221.67h1.67v15.69h-1.86V223.61a10.74,10.74,0,0,1-2.59,1.19V223l0.68-.29,0.77-.34c0.17-.08.39-0.19,0.65-0.33A6.53,6.53,0,0,0,367.73,221.67Z"/><path class="cls-7" d="M377.36,237.6a6.67,6.67,0,0,1-2.58-.48,4.27,4.27,0,0,1-1.86-1.46,3.88,3.88,0,0,1-.71-2.34,4.15,4.15,0,0,1,.86-2.61,4.85,4.85,0,0,1,2.4-1.62,3.82,3.82,0,0,1-2.94-3.78,3.48,3.48,0,0,1,1.34-2.91,5.49,5.49,0,0,1,3.48-1,5.39,5.39,0,0,1,3.45,1,3.5,3.5,0,0,1,1.32,2.91,3.75,3.75,0,0,1-.71,2.33,4.48,4.48,0,0,1-2,1.45,4.56,4.56,0,0,1,2.22,1.62,4.33,4.33,0,0,1,.81,2.61,3.77,3.77,0,0,1-1.45,3.15A5.75,5.75,0,0,1,377.36,237.6Zm0-7.62a5.3,5.3,0,0,0-2.4,1.16,2.64,2.64,0,0,0-.9,2.05,2.51,2.51,0,0,0,.93,2.05,3.63,3.63,0,0,0,2.37.76,3.52,3.52,0,0,0,2.34-.76,2.54,2.54,0,0,0,.91-2.05,2.68,2.68,0,0,0-.88-2.06A5,5,0,0,0,377.36,230Zm0-7a3.53,3.53,0,0,0-2.1.62,2,2,0,0,0-.87,1.7q0,2.48,3,3.14,2.93-.66,2.93-3.14a2,2,0,0,0-.85-1.7A3.43,3.43,0,0,0,377.36,223Z"/><path class="cls-7" d="M385,242.36v-16.5h1.54l0.17,1.56a4.59,4.59,0,0,1,3.63-1.8,4.43,4.43,0,0,1,2.66.79,4.6,4.6,0,0,1,1.61,2.13,8.66,8.66,0,0,1,.52,3.14,7.77,7.77,0,0,1-.57,3.06,4.79,4.79,0,0,1-1.66,2.11,4.35,4.35,0,0,1-2.56.77,4.53,4.53,0,0,1-2.09-.5,4.27,4.27,0,0,1-1.56-1.32q0.06,1.13.06,2.2v4.25Zm5.1-6.23a2.8,2.8,0,0,0,1.43-.36,2.84,2.84,0,0,0,1-1,5,5,0,0,0,.59-1.43,7.18,7.18,0,0,0,.2-1.74,5.8,5.8,0,0,0-.83-3.24,2.72,2.72,0,0,0-2.42-1.26q-3.34,0-3.34,4.31a6.45,6.45,0,0,0,.78,3.53A2.85,2.85,0,0,0,390.12,236.13Z"/><path class="cls-7" d="M400.44,231.51l-4.06-5.65h2l3.07,4.38,3.08-4.38h2l-4.07,5.67,4.17,5.83h-1.94l-3.24-4.62-3.24,4.63h-2Z"/></g><g class="cls-4"><path class="cls-7" d="M367.73,264.63h1.67v15.69h-1.86V266.57a10.82,10.82,0,0,1-2.59,1.19V266l0.68-.29,0.77-.34c0.17-.08.39-0.18,0.65-0.33A6.37,6.37,0,0,0,367.73,264.63Z"/><path class="cls-7" d="M382.9,276.43h-1.78v3.89h-1.76v-3.89h-7.09v-1.6l6.89-10.2h2v10.28H383ZM379.35,267l-5.24,7.9h5.24V267Z"/><path class="cls-7" d="M385.33,285.32v-16.5h1.54l0.17,1.56a4.59,4.59,0,0,1,3.63-1.8,4.43,4.43,0,0,1,2.66.79,4.6,4.6,0,0,1,1.61,2.13,8.67,8.67,0,0,1,.52,3.14,7.79,7.79,0,0,1-.57,3.06,4.8,4.8,0,0,1-1.66,2.11,4.34,4.34,0,0,1-2.56.77,4.52,4.52,0,0,1-2.09-.5,4.28,4.28,0,0,1-1.56-1.32q0.06,1.13.06,2.2v4.25Zm5.1-6.23a2.82,2.82,0,0,0,1.43-.36,2.85,2.85,0,0,0,1-1,5,5,0,0,0,.59-1.43,7.19,7.19,0,0,0,.2-1.74,5.8,5.8,0,0,0-.83-3.24,2.72,2.72,0,0,0-2.42-1.26q-3.34,0-3.34,4.31a6.46,6.46,0,0,0,.78,3.52A2.85,2.85,0,0,0,390.43,279.09Z"/><path class="cls-7" d="M400.75,274.47l-4.06-5.65h2l3.07,4.38,3.08-4.38h2l-4.07,5.68,4.17,5.83H405l-3.24-4.63-3.24,4.63h-2Z"/></g><g class="cls-4"><path class="cls-7" d="M367.73,307.6h1.67v15.69h-1.86V309.54a10.82,10.82,0,0,1-2.59,1.19V309l0.68-.29,0.77-.34c0.17-.08.39-0.18,0.65-0.33A6.37,6.37,0,0,0,367.73,307.6Z"/><path class="cls-7" d="M372.31,323.29l-0.24-1.72,5.42-6a7.8,7.8,0,0,0,1.05-1.57,12.17,12.17,0,0,0,.74-1.64l0.24-.66a2.72,2.72,0,0,0-.72-2,2.79,2.79,0,0,0-2.06-.72,4.71,4.71,0,0,0-3.5,1.29l-0.61-1.57a6,6,0,0,1,4.24-1.36,4.86,4.86,0,0,1,3.41,1.16,4,4,0,0,1,1.27,3.1c0,0.1-.07.23-0.12,0.39s-0.18.48-.36,1-0.38.93-.58,1.35a15.73,15.73,0,0,1-.77,1.41,7.85,7.85,0,0,1-1,1.28l-4.43,4.73h7.27l-0.12,1.62h-9.18Z"/><path class="cls-7" d="M384.33,328.29v-16.5h1.54l0.17,1.56a4.59,4.59,0,0,1,3.63-1.8,4.43,4.43,0,0,1,2.66.79,4.6,4.6,0,0,1,1.61,2.13,8.67,8.67,0,0,1,.52,3.14,7.77,7.77,0,0,1-.57,3.06,4.8,4.8,0,0,1-1.66,2.11,4.34,4.34,0,0,1-2.56.77,4.52,4.52,0,0,1-2.09-.5,4.28,4.28,0,0,1-1.56-1.32q0.06,1.13.06,2.2v4.25Zm5.1-6.23a2.82,2.82,0,0,0,1.43-.36,2.85,2.85,0,0,0,1-1,5,5,0,0,0,.59-1.43,7.19,7.19,0,0,0,.2-1.74,5.8,5.8,0,0,0-.83-3.24,2.72,2.72,0,0,0-2.42-1.26q-3.34,0-3.34,4.31a6.46,6.46,0,0,0,.78,3.52A2.85,2.85,0,0,0,389.43,322.06Z"/><path class="cls-7" d="M399.75,317.44l-4.06-5.65h2l3.07,4.38,3.08-4.38h2l-4.07,5.68,4.18,5.83H404l-3.24-4.63-3.24,4.63h-2Z"/></g><g class="cls-4"><path class="cls-6" d="M572.83,194.4v-7a4.48,4.48,0,0,0-.55-2.52,2.18,2.18,0,0,0-1.92-.79,3.68,3.68,0,0,0-2.23.66,3,3,0,0,0-1.18,1.71,14.89,14.89,0,0,0-.09,1.75v6.14H565.1v-16l1.75-.1V183q0,0.6,0,1.48a4.8,4.8,0,0,1,3.92-1.83q3.85,0,3.85,4.52v7.23h-1.75Z"/><path class="cls-6" d="M578.41,178.7h1.67V194.4h-1.86V180.65a10.81,10.81,0,0,1-2.59,1.19v-1.75l0.68-.29,0.77-.34c0.17-.08.39-0.18,0.64-0.33A6.27,6.27,0,0,0,578.41,178.7Z"/></g><g class="cls-4"><path class="cls-6" d="M572.83,237.36v-7a4.48,4.48,0,0,0-.55-2.52,2.18,2.18,0,0,0-1.92-.79,3.68,3.68,0,0,0-2.23.66,3,3,0,0,0-1.18,1.71,14.89,14.89,0,0,0-.09,1.75v6.14H565.1v-16l1.75-.11V226q0,0.6,0,1.48a4.8,4.8,0,0,1,3.92-1.83q3.85,0,3.85,4.52v7.23h-1.75Z"/><path class="cls-6" d="M576.43,237.36l-0.24-1.72,5.42-6a7.84,7.84,0,0,0,1.05-1.57,12,12,0,0,0,.74-1.64l0.24-.66a2.72,2.72,0,0,0-.72-2,2.8,2.8,0,0,0-2.06-.72,4.71,4.71,0,0,0-3.5,1.29l-0.61-1.57a6,6,0,0,1,4.24-1.36,4.86,4.86,0,0,1,3.41,1.16,4,4,0,0,1,1.27,3.1c0,0.1-.07.23-0.13,0.39s-0.18.48-.36,1-0.38.93-.58,1.35a15.62,15.62,0,0,1-.77,1.41,7.82,7.82,0,0,1-1,1.28l-4.43,4.73h7.27l-0.12,1.62h-9.18Z"/></g><g class="cls-4"><path class="cls-6" d="M572.83,280.33v-7a4.48,4.48,0,0,0-.55-2.52,2.18,2.18,0,0,0-1.92-.79,3.68,3.68,0,0,0-2.23.66,3,3,0,0,0-1.18,1.71,14.89,14.89,0,0,0-.09,1.75v6.14H565.1v-16l1.75-.1v4.68q0,0.6,0,1.48a4.8,4.8,0,0,1,3.92-1.83q3.85,0,3.85,4.52v7.23h-1.75Z"/><path class="cls-6" d="M580.44,280.57a7.85,7.85,0,0,1-2.5-.37,4.27,4.27,0,0,1-1.6-.85l0.59-1.54a5.53,5.53,0,0,0,3.53,1.16,3.76,3.76,0,0,0,2.5-.78,2.7,2.7,0,0,0,.93-2.19,3.48,3.48,0,0,0-.24-1.34,2.49,2.49,0,0,0-.63-0.92,3,3,0,0,0-1-.57,6.32,6.32,0,0,0-1.26-.3,13.62,13.62,0,0,0-1.5-.11h-0.63v-1.56h0.53a12.17,12.17,0,0,0,1.29-.08,6.19,6.19,0,0,0,1.12-.25,2.87,2.87,0,0,0,.93-0.47,2.18,2.18,0,0,0,.6-0.79,2.71,2.71,0,0,0,.23-1.16q0-2.52-2.88-2.52a6.15,6.15,0,0,0-2,.3,5.1,5.1,0,0,0-1.56.82l-0.59-1.53a7.35,7.35,0,0,1,4.5-1.18,5.49,5.49,0,0,1,2.19.43,4,4,0,0,1,1.66,1.33,3.49,3.49,0,0,1,.65,2.1,3.85,3.85,0,0,1-.72,2.41,4,4,0,0,1-2,1.35,3.85,3.85,0,0,1,2.3,1.38,4.21,4.21,0,0,1,.83,2.69,4.09,4.09,0,0,1-1.48,3.3A5.72,5.72,0,0,1,580.44,280.57Z"/></g><g class="cls-4"><path class="cls-6" d="M570.49,311.55a4.5,4.5,0,0,1,2.64.78,4.73,4.73,0,0,1,1.67,2.11,7.88,7.88,0,0,1,.56,3.05,8.27,8.27,0,0,1-.55,3.14,4.69,4.69,0,0,1-1.67,2.13,4.53,4.53,0,0,1-2.67.78,4.45,4.45,0,0,1-2.09-.49,4.56,4.56,0,0,1-1.57-1.34l-0.18,1.59h-1.5v-16l1.75-.1V311q0,1.41,0,2.41A4.48,4.48,0,0,1,570.49,311.55ZM570.31,313a3,3,0,0,0-2.55,1.15,5.45,5.45,0,0,0-.89,3.37q0,4.55,3.43,4.55a3.07,3.07,0,0,0,1.49-.35,2.6,2.6,0,0,0,1-1,5.07,5.07,0,0,0,.56-1.43,8,8,0,0,0,.18-1.77,7.69,7.69,0,0,0-.31-2.31,3.31,3.31,0,0,0-1.05-1.61A2.84,2.84,0,0,0,570.31,313Z"/><path class="cls-6" d="M587.94,317.53a6.43,6.43,0,0,1-1.43,4.34,4.92,4.92,0,0,1-3.94,1.66,4.8,4.8,0,0,1-3.85-1.68,7.24,7.24,0,0,1,0-8.65,5,5,0,0,1,3.94-1.66,4.8,4.8,0,0,1,3.87,1.66A6.47,6.47,0,0,1,587.94,317.53Zm-8.84,0a5.41,5.41,0,0,0,.91,3.28,3.09,3.09,0,0,0,2.65,1.23,3,3,0,0,0,2.6-1.23,6.74,6.74,0,0,0,0-6.62,3.44,3.44,0,0,0-5.26,0A5.52,5.52,0,0,0,579.1,317.57Z"/><path class="cls-6" d="M598.36,321.63a4.13,4.13,0,0,1-1.51,1.38,4.68,4.68,0,0,1-5.67-1.11,6.89,6.89,0,0,1-1.29-4.41,6.69,6.69,0,0,1,1.31-4.31,4.27,4.27,0,0,1,3.51-1.64,4.82,4.82,0,0,1,2.16.5,3.52,3.52,0,0,1,1.52,1.34l0-1v-5.07l1.73-.1v16.08h-1.49Zm-3.45.4a3,3,0,0,0,2.58-1.11,5.17,5.17,0,0,0,.84-3.18,6.2,6.2,0,0,0-.81-3.51,3,3,0,0,0-2.63-1.18,2.88,2.88,0,0,0-1.43.35,2.7,2.7,0,0,0-1,1,4.94,4.94,0,0,0-.57,1.42,7.49,7.49,0,0,0-.19,1.76,7.34,7.34,0,0,0,.33,2.33,3.3,3.3,0,0,0,1.06,1.57A2.81,2.81,0,0,0,594.91,322Z"/><path class="cls-6" d="M601.66,311.79h1.86l3.63,9.58,3.23-9.58h1.86q-4.66,12.82-4.82,13.22a6.48,6.48,0,0,1-1.75,2.66,4.13,4.13,0,0,1-2.71.84,7.14,7.14,0,0,1-1.06-.08l-0.1-1.49c0.39,0,.68,0,0.88,0a3.1,3.1,0,0,0,1.8-.44,3.63,3.63,0,0,0,1.1-1.63q0.43-1.1.64-1.7Z"/></g><g class="cls-4"><path class="cls-7" d="M652.48,194.4l-0.24-1.72,5.42-6a7.8,7.8,0,0,0,1.05-1.57,12.07,12.07,0,0,0,.74-1.64l0.24-.66a2.72,2.72,0,0,0-.72-2,2.79,2.79,0,0,0-2.06-.72,4.71,4.71,0,0,0-3.5,1.29l-0.61-1.57A6,6,0,0,1,657,178.4a4.86,4.86,0,0,1,3.41,1.16,4,4,0,0,1,1.27,3.1l-0.13.39q-0.08.25-.36,1t-0.58,1.35a15.73,15.73,0,0,1-.77,1.41,7.8,7.8,0,0,1-.95,1.28l-4.43,4.73h7.27l-0.12,1.62h-9.18Z"/><path class="cls-7" d="M672,194a5.17,5.17,0,0,1-4.88,0,4.59,4.59,0,0,1-1.68-1.73,8.88,8.88,0,0,1-.94-2.56,15.39,15.39,0,0,1-.31-3.22,16.66,16.66,0,0,1,.2-2.7,9.75,9.75,0,0,1,.63-2.24,6.09,6.09,0,0,1,1.06-1.71,4.36,4.36,0,0,1,1.52-1.09,4.88,4.88,0,0,1,2-.38,4.73,4.73,0,0,1,2.38.59,4.57,4.57,0,0,1,1.68,1.67,8.62,8.62,0,0,1,1,2.56,15.37,15.37,0,0,1,.33,3.3,15.74,15.74,0,0,1-.3,3.22,8.9,8.9,0,0,1-.93,2.56A4.56,4.56,0,0,1,672,194Zm-0.6-13.19a2.42,2.42,0,0,0-3.67,0,5.44,5.44,0,0,0-1.15,2.29,13.05,13.05,0,0,0-.38,3.33,13.57,13.57,0,0,0,.38,3.39,5.56,5.56,0,0,0,1.15,2.33,2.39,2.39,0,0,0,3.67,0,5.55,5.55,0,0,0,1.15-2.33,13.57,13.57,0,0,0,.38-3.39,13.05,13.05,0,0,0-.38-3.33A5.43,5.43,0,0,0,671.36,180.84Z"/><path class="cls-7" d="M685,194a5.17,5.17,0,0,1-4.88,0,4.59,4.59,0,0,1-1.68-1.73,8.88,8.88,0,0,1-.94-2.56,15.39,15.39,0,0,1-.31-3.22,16.66,16.66,0,0,1,.2-2.7,9.75,9.75,0,0,1,.63-2.24,6.09,6.09,0,0,1,1.06-1.71,4.36,4.36,0,0,1,1.52-1.09,4.88,4.88,0,0,1,2-.38,4.73,4.73,0,0,1,2.38.59,4.57,4.57,0,0,1,1.68,1.67,8.62,8.62,0,0,1,1,2.56,15.37,15.37,0,0,1,.33,3.3,15.74,15.74,0,0,1-.3,3.22,8.9,8.9,0,0,1-.93,2.56A4.56,4.56,0,0,1,685,194Zm-0.6-13.19a2.42,2.42,0,0,0-3.67,0,5.44,5.44,0,0,0-1.15,2.29,13.05,13.05,0,0,0-.38,3.33,13.57,13.57,0,0,0,.38,3.39,5.56,5.56,0,0,0,1.15,2.33,2.39,2.39,0,0,0,3.67,0,5.55,5.55,0,0,0,1.15-2.33,13.57,13.57,0,0,0,.38-3.39,13.05,13.05,0,0,0-.38-3.33A5.43,5.43,0,0,0,684.38,180.84Z"/><path class="cls-7" d="M693.45,178.78a3,3,0,0,1,2.44,1.14,4.48,4.48,0,0,1,.92,2.9,4.28,4.28,0,0,1-.92,2.83,3,3,0,0,1-2.43,1.11,3,3,0,0,1-2.42-1.11,4.34,4.34,0,0,1-.9-2.84,4.52,4.52,0,0,1,.91-2.9A2.93,2.93,0,0,1,693.45,178.78Zm0,1.16a1.64,1.64,0,0,0-1.47.84,3.75,3.75,0,0,0-.52,2,3.42,3.42,0,0,0,.52,2,1.8,1.8,0,0,0,3,0,3.42,3.42,0,0,0,.52-1.95,3.7,3.7,0,0,0-.54-2A1.66,1.66,0,0,0,693.45,179.94Zm-0.2,14.5,8.34-15.38h1.7l-8.62,15.38h-1.42Zm10.8-8a3.42,3.42,0,0,1,2.74,1.12,4.31,4.31,0,0,1,1,2.92,4.26,4.26,0,0,1-1,2.89,3.85,3.85,0,0,1-5.45,0,4.83,4.83,0,0,1,0-5.81A3.39,3.39,0,0,1,704.05,186.49Zm1.75,2a2.26,2.26,0,0,0-3.49,0,3.58,3.58,0,0,0,0,4,2.26,2.26,0,0,0,3.49,0A3.58,3.58,0,0,0,705.8,188.5Z"/></g><g class="cls-4"><path class="cls-7" d="M654.47,221.67h1.67v15.69h-1.86V223.61a10.73,10.73,0,0,1-2.59,1.19V223l0.68-.29,0.77-.34,0.65-.33A6.51,6.51,0,0,0,654.47,221.67Z"/><path class="cls-7" d="M668.4,221.67l-0.15,1.72h-6.41q-0.11,3.05-.16,4.94a4.69,4.69,0,0,1,2.57-.75,5.51,5.51,0,0,1,2.08.37,4,4,0,0,1,1.5,1,4.47,4.47,0,0,1,.89,1.52,5.6,5.6,0,0,1,.3,1.87,5,5,0,0,1-1.53,3.81,5.82,5.82,0,0,1-4.15,1.43,6,6,0,0,1-4.22-1.44l0.68-1.48a5.67,5.67,0,0,0,3.6,1.22,3.72,3.72,0,0,0,2.72-1,3.41,3.41,0,0,0,1-2.55,3,3,0,0,0-3.23-3.16,3.21,3.21,0,0,0-2.5,1l-1.46-.2,0.41-8.39h8Z"/><path class="cls-7" d="M679.17,237a5.16,5.16,0,0,1-4.88,0,4.59,4.59,0,0,1-1.68-1.73,8.86,8.86,0,0,1-.94-2.56,15.4,15.4,0,0,1-.31-3.22,16.64,16.64,0,0,1,.2-2.7,9.76,9.76,0,0,1,.63-2.25,6.12,6.12,0,0,1,1.06-1.71,4.37,4.37,0,0,1,1.52-1.09,4.86,4.86,0,0,1,2-.38,4.71,4.71,0,0,1,2.38.59,4.56,4.56,0,0,1,1.68,1.67,8.64,8.64,0,0,1,1,2.56,15.35,15.35,0,0,1,.33,3.3,15.76,15.76,0,0,1-.3,3.22,8.88,8.88,0,0,1-.93,2.56A4.56,4.56,0,0,1,679.17,237Zm-0.6-13.18a2.42,2.42,0,0,0-3.67,0,5.42,5.42,0,0,0-1.15,2.29,13.06,13.06,0,0,0-.38,3.33,13.57,13.57,0,0,0,.38,3.39,5.57,5.57,0,0,0,1.15,2.33,2.39,2.39,0,0,0,3.67,0,5.56,5.56,0,0,0,1.15-2.33,13.57,13.57,0,0,0,.38-3.39,13.06,13.06,0,0,0-.38-3.33A5.41,5.41,0,0,0,678.57,223.81Z"/><path class="cls-7" d="M687.63,221.74a3,3,0,0,1,2.44,1.14,4.48,4.48,0,0,1,.92,2.9,4.28,4.28,0,0,1-.92,2.83,3,3,0,0,1-2.43,1.11,3,3,0,0,1-2.42-1.11,4.35,4.35,0,0,1-.9-2.84,4.51,4.51,0,0,1,.91-2.89A2.93,2.93,0,0,1,687.63,221.74Zm0,1.17a1.64,1.64,0,0,0-1.47.84,3.76,3.76,0,0,0-.52,2,3.42,3.42,0,0,0,.52,2,1.8,1.8,0,0,0,3,0,3.41,3.41,0,0,0,.52-1.95,3.7,3.7,0,0,0-.54-2A1.66,1.66,0,0,0,687.63,222.91Zm-0.2,14.5L695.78,222h1.7l-8.62,15.38h-1.42Zm10.8-8a3.42,3.42,0,0,1,2.74,1.12,4.31,4.31,0,0,1,1,2.92,4.26,4.26,0,0,1-1,2.9,3.85,3.85,0,0,1-5.45,0,4.83,4.83,0,0,1,0-5.81A3.39,3.39,0,0,1,698.24,229.45Zm1.75,2a2.26,2.26,0,0,0-3.49,0,3.58,3.58,0,0,0,0,4,2.26,2.26,0,0,0,3.49,0A3.58,3.58,0,0,0,700,231.47Z"/></g><g class="cls-4"><path class="cls-7" d="M654.47,264.63h1.67v15.69h-1.86V266.57a10.81,10.81,0,0,1-2.59,1.19V266l0.68-.29,0.77-.34c0.17-.08.39-0.18,0.65-0.33A6.35,6.35,0,0,0,654.47,264.63Z"/><path class="cls-7" d="M661,264.63h1.67v15.69h-1.86V266.57a10.81,10.81,0,0,1-2.59,1.19V266l0.68-.29,0.77-.34c0.17-.08.39-0.18,0.65-0.33A6.35,6.35,0,0,0,661,264.63Z"/><path class="cls-7" d="M667.17,280.33l5.39-14.07h-7.08l0.12-1.63h9.09v1.43l-5.61,14.27h-1.91Z"/><path class="cls-7" d="M679.87,264.71a3,3,0,0,1,2.44,1.14,4.48,4.48,0,0,1,.92,2.9,4.28,4.28,0,0,1-.92,2.83,3,3,0,0,1-2.43,1.11,3,3,0,0,1-2.42-1.11,4.34,4.34,0,0,1-.9-2.84,4.52,4.52,0,0,1,.91-2.9A2.93,2.93,0,0,1,679.87,264.71Zm0,1.16a1.64,1.64,0,0,0-1.47.84,3.75,3.75,0,0,0-.52,2,3.42,3.42,0,0,0,.52,2,1.8,1.8,0,0,0,3,0,3.42,3.42,0,0,0,.52-1.95,3.7,3.7,0,0,0-.54-2A1.66,1.66,0,0,0,679.87,265.87Zm-0.2,14.5L688,265h1.7l-8.62,15.38h-1.42Zm10.8-8a3.42,3.42,0,0,1,2.74,1.12,4.31,4.31,0,0,1,1,2.92,4.26,4.26,0,0,1-1,2.89,3.85,3.85,0,0,1-5.45,0,4.83,4.83,0,0,1,0-5.81A3.39,3.39,0,0,1,690.48,272.42Zm1.75,2a2.26,2.26,0,0,0-3.49,0,3.58,3.58,0,0,0,0,4,2.26,2.26,0,0,0,3.49,0A3.58,3.58,0,0,0,692.22,274.43Z"/></g><g class="cls-4"><path class="cls-7" d="M654,323.29l5.39-14.07h-7.08l0.12-1.63h9.09V309l-5.61,14.27H654Z"/><path class="cls-7" d="M672.86,307.6l-0.15,1.72h-6.41q-0.11,3.05-.16,4.94a4.69,4.69,0,0,1,2.57-.75,5.51,5.51,0,0,1,2.08.37,4,4,0,0,1,1.5,1,4.48,4.48,0,0,1,.89,1.52,5.61,5.61,0,0,1,.3,1.87A5,5,0,0,1,672,322.1a5.82,5.82,0,0,1-4.15,1.43,6,6,0,0,1-4.22-1.44l0.68-1.48a5.67,5.67,0,0,0,3.6,1.22,3.72,3.72,0,0,0,2.72-1,3.41,3.41,0,0,0,1-2.55,3,3,0,0,0-3.23-3.16,3.21,3.21,0,0,0-2.5,1l-1.46-.2,0.41-8.39h8Z"/><path class="cls-7" d="M679.08,307.68a3,3,0,0,1,2.44,1.14,4.48,4.48,0,0,1,.92,2.9,4.28,4.28,0,0,1-.92,2.83,3,3,0,0,1-2.43,1.11,3,3,0,0,1-2.42-1.11,4.34,4.34,0,0,1-.9-2.84,4.52,4.52,0,0,1,.91-2.9A2.93,2.93,0,0,1,679.08,307.68Zm0,1.16a1.64,1.64,0,0,0-1.47.84,3.75,3.75,0,0,0-.52,2,3.42,3.42,0,0,0,.52,2,1.8,1.8,0,0,0,3,0,3.42,3.42,0,0,0,.52-1.95,3.7,3.7,0,0,0-.54-2A1.66,1.66,0,0,0,679.08,308.84Zm-0.2,14.5L687.23,308h1.7l-8.62,15.38h-1.42Zm10.8-8a3.42,3.42,0,0,1,2.74,1.12,4.31,4.31,0,0,1,1,2.92,4.26,4.26,0,0,1-1,2.89,3.85,3.85,0,0,1-5.45,0,4.83,4.83,0,0,1,0-5.81A3.39,3.39,0,0,1,689.69,315.38Zm1.75,2a2.26,2.26,0,0,0-3.49,0,3.58,3.58,0,0,0,0,4,2.26,2.26,0,0,0,3.49,0A3.58,3.58,0,0,0,691.44,317.4Z"/></g><g class="cls-4"><path class="cls-6" d="M841.71,194.4v-7a4.48,4.48,0,0,0-.55-2.52,2.19,2.19,0,0,0-1.92-.79,3.69,3.69,0,0,0-2.23.66,3,3,0,0,0-1.18,1.71,14.88,14.88,0,0,0-.09,1.75v6.14H834v-16l1.75-.1V183q0,0.6,0,1.48a4.8,4.8,0,0,1,3.92-1.83q3.85,0,3.85,4.52v7.23h-1.75Z"/><path class="cls-6" d="M847.29,178.7H849V194.4H847.1V180.65a10.81,10.81,0,0,1-2.59,1.19v-1.75l0.68-.29,0.77-.34c0.17-.08.39-0.18,0.65-0.33A6.35,6.35,0,0,0,847.29,178.7Z"/></g><g class="cls-4"><path class="cls-6" d="M841.71,237.36v-7a4.48,4.48,0,0,0-.55-2.52,2.19,2.19,0,0,0-1.92-.79,3.69,3.69,0,0,0-2.23.66,3,3,0,0,0-1.18,1.71,14.88,14.88,0,0,0-.09,1.75v6.14H834v-16l1.75-.11V226q0,0.6,0,1.48a4.8,4.8,0,0,1,3.92-1.83q3.85,0,3.85,4.52v7.23h-1.75Z"/><path class="cls-6" d="M845.31,237.36l-0.24-1.72,5.42-6a7.84,7.84,0,0,0,1.05-1.57,12,12,0,0,0,.74-1.64l0.24-.66a2.72,2.72,0,0,0-.72-2,2.8,2.8,0,0,0-2.06-.72,4.71,4.71,0,0,0-3.5,1.29l-0.61-1.57a6,6,0,0,1,4.24-1.36,4.86,4.86,0,0,1,3.41,1.16,4,4,0,0,1,1.27,3.1c0,0.1-.07.23-0.13,0.39s-0.18.48-.36,1-0.38.93-.58,1.35a15.87,15.87,0,0,1-.77,1.41,7.87,7.87,0,0,1-.95,1.28l-4.43,4.73h7.27l-0.12,1.62h-9.18Z"/></g><g class="cls-4"><path class="cls-6" d="M841.71,280.33v-7a4.48,4.48,0,0,0-.55-2.52,2.19,2.19,0,0,0-1.92-.79,3.69,3.69,0,0,0-2.23.66,3,3,0,0,0-1.18,1.71,14.88,14.88,0,0,0-.09,1.75v6.14H834v-16l1.75-.1v4.68q0,0.6,0,1.48a4.8,4.8,0,0,1,3.92-1.83q3.85,0,3.85,4.52v7.23h-1.75Z"/><path class="cls-6" d="M849.33,280.57a7.85,7.85,0,0,1-2.5-.37,4.28,4.28,0,0,1-1.6-.85l0.59-1.54a5.53,5.53,0,0,0,3.52,1.16,3.76,3.76,0,0,0,2.5-.78,2.7,2.7,0,0,0,.93-2.19,3.5,3.5,0,0,0-.24-1.34,2.49,2.49,0,0,0-.63-0.92,3,3,0,0,0-1-.57,6.35,6.35,0,0,0-1.26-.3,13.62,13.62,0,0,0-1.5-.11h-0.63v-1.56H848a12.15,12.15,0,0,0,1.29-.08,6.16,6.16,0,0,0,1.12-.25,2.88,2.88,0,0,0,.93-0.47,2.16,2.16,0,0,0,.6-0.79,2.71,2.71,0,0,0,.23-1.16q0-2.52-2.88-2.52a6.15,6.15,0,0,0-2,.3,5.1,5.1,0,0,0-1.56.82l-0.59-1.53a7.35,7.35,0,0,1,4.5-1.18,5.49,5.49,0,0,1,2.19.43,4,4,0,0,1,1.66,1.33,3.49,3.49,0,0,1,.65,2.1,3.85,3.85,0,0,1-.72,2.41,4,4,0,0,1-2,1.35,3.85,3.85,0,0,1,2.3,1.38,4.21,4.21,0,0,1,.83,2.69,4.09,4.09,0,0,1-1.48,3.3A5.72,5.72,0,0,1,849.33,280.57Z"/></g><g class="cls-4"><path class="cls-6" d="M839.37,311.55a4.5,4.5,0,0,1,2.64.78,4.72,4.72,0,0,1,1.67,2.11,7.86,7.86,0,0,1,.56,3.05,8.27,8.27,0,0,1-.55,3.14,4.7,4.7,0,0,1-1.67,2.13,4.54,4.54,0,0,1-2.67.78,4.44,4.44,0,0,1-2.09-.49,4.56,4.56,0,0,1-1.57-1.34l-0.18,1.59H834v-16l1.75-.1V311q0,1.41,0,2.41A4.47,4.47,0,0,1,839.37,311.55ZM839.19,313a3,3,0,0,0-2.55,1.15,5.45,5.45,0,0,0-.89,3.37q0,4.55,3.43,4.55a3.08,3.08,0,0,0,1.5-.35,2.61,2.61,0,0,0,1-1,5,5,0,0,0,.56-1.43,7.94,7.94,0,0,0,.18-1.77,7.73,7.73,0,0,0-.31-2.31,3.33,3.33,0,0,0-1.05-1.61A2.84,2.84,0,0,0,839.19,313Z"/><path class="cls-6" d="M856.83,317.53a6.43,6.43,0,0,1-1.43,4.34,4.92,4.92,0,0,1-3.94,1.66,4.81,4.81,0,0,1-3.86-1.68,7.24,7.24,0,0,1,0-8.65,5,5,0,0,1,3.94-1.66,4.8,4.8,0,0,1,3.87,1.66A6.47,6.47,0,0,1,856.83,317.53Zm-8.84,0a5.41,5.41,0,0,0,.91,3.28,3.08,3.08,0,0,0,2.65,1.23,3,3,0,0,0,2.6-1.23,6.74,6.74,0,0,0,0-6.62,3.44,3.44,0,0,0-5.26,0A5.51,5.51,0,0,0,848,317.57Z"/><path class="cls-6" d="M867.24,321.63a4.12,4.12,0,0,1-1.51,1.38,4.68,4.68,0,0,1-5.67-1.11,6.9,6.9,0,0,1-1.29-4.41,6.69,6.69,0,0,1,1.31-4.31,4.27,4.27,0,0,1,3.51-1.64,4.82,4.82,0,0,1,2.16.5,3.52,3.52,0,0,1,1.52,1.34l0-1v-5.07l1.73-.1v16.08h-1.49Zm-3.45.4a3,3,0,0,0,2.58-1.11,5.17,5.17,0,0,0,.84-3.18,6.21,6.21,0,0,0-.81-3.51,3,3,0,0,0-2.63-1.18,2.87,2.87,0,0,0-1.43.35,2.68,2.68,0,0,0-1,1,4.94,4.94,0,0,0-.57,1.42,7.48,7.48,0,0,0-.19,1.76,7.34,7.34,0,0,0,.33,2.33,3.3,3.3,0,0,0,1.06,1.57A2.81,2.81,0,0,0,863.79,322Z"/><path class="cls-6" d="M870.54,311.79h1.86l3.63,9.58,3.23-9.58h1.86q-4.66,12.82-4.81,13.22a6.47,6.47,0,0,1-1.75,2.66,4.13,4.13,0,0,1-2.71.84,7.15,7.15,0,0,1-1.06-.08l-0.1-1.49c0.39,0,.69,0,0.88,0a3.1,3.1,0,0,0,1.8-.44,3.63,3.63,0,0,0,1.1-1.63q0.43-1.1.64-1.7Z"/></g><g class="cls-4"><path class="cls-6" d="M834,371.26v-16.5h1.54l0.17,1.56a4.59,4.59,0,0,1,3.63-1.8,4.44,4.44,0,0,1,2.67.79,4.6,4.6,0,0,1,1.61,2.13,8.65,8.65,0,0,1,.52,3.14,7.77,7.77,0,0,1-.57,3.06,4.8,4.8,0,0,1-1.66,2.11,4.34,4.34,0,0,1-2.57.77,4.52,4.52,0,0,1-2.09-.5,4.28,4.28,0,0,1-1.56-1.32q0.06,1.13.06,2.2v4.25Zm5.1-6.23a2.82,2.82,0,0,0,1.43-.36,2.85,2.85,0,0,0,1-1,5,5,0,0,0,.59-1.43,7.24,7.24,0,0,0,.2-1.74,5.79,5.79,0,0,0-.83-3.24A2.72,2.72,0,0,0,839,356q-3.34,0-3.34,4.31a6.46,6.46,0,0,0,.78,3.52A2.85,2.85,0,0,0,839.06,365Z"/></g><g class="cls-4"><path class="cls-7" d="M923.35,178.7H925V194.4h-1.86V180.65a10.81,10.81,0,0,1-2.59,1.19v-1.75l0.68-.29,0.77-.34c0.17-.08.39-0.18,0.65-0.33A6.35,6.35,0,0,0,923.35,178.7Z"/><path class="cls-7" d="M929.49,194.52a1.3,1.3,0,0,1-1-.41,1.46,1.46,0,0,1,0-1.95,1.49,1.49,0,0,1,2.06,0,1.48,1.48,0,0,1,0,2A1.31,1.31,0,0,1,929.49,194.52Z"/><path class="cls-7" d="M942.46,178.7l-0.15,1.72h-6.41q-0.11,3.05-.16,4.94a4.69,4.69,0,0,1,2.57-.75,5.51,5.51,0,0,1,2.08.37,4,4,0,0,1,1.5,1,4.48,4.48,0,0,1,.89,1.52,5.61,5.61,0,0,1,.3,1.87,5,5,0,0,1-1.53,3.81,5.82,5.82,0,0,1-4.15,1.43,6,6,0,0,1-4.22-1.44l0.68-1.48a5.67,5.67,0,0,0,3.6,1.22,3.72,3.72,0,0,0,2.72-1,3.41,3.41,0,0,0,1-2.55,3,3,0,0,0-3.23-3.16,3.21,3.21,0,0,0-2.5,1l-1.46-.2,0.41-8.39h8Z"/><path class="cls-7" d="M956,194.64a5.06,5.06,0,0,1-3.95-1.59,6.26,6.26,0,0,1-1.44-4.36,6.52,6.52,0,0,1,1.4-4.34,4.65,4.65,0,0,1,3.67-1.69,4.24,4.24,0,0,1,3.39,1.46,5.8,5.8,0,0,1,1.25,3.91c0,0.08,0,.24,0,0.46s0,0.38,0,.48h-7.9a4.54,4.54,0,0,0,1,3.06,3.36,3.36,0,0,0,2.64,1.1,7.81,7.81,0,0,0,3.66-1l0.27,1.42A7.51,7.51,0,0,1,956,194.64Zm1.77-9.62a2.61,2.61,0,0,0-2.11-.92,2.81,2.81,0,0,0-2.19.95,4.36,4.36,0,0,0-1,2.6h6.07A4,4,0,0,0,957.78,185Z"/><path class="cls-7" d="M977.37,194.4v-6q0-.84,0-1.41a7.43,7.43,0,0,0-.17-1.15,2.65,2.65,0,0,0-.37-0.93,1.74,1.74,0,0,0-.66-0.55,2.17,2.17,0,0,0-1-.22,3.15,3.15,0,0,0-2,.62,3.36,3.36,0,0,0-1.16,1.74,12.94,12.94,0,0,0-.09,1.62v6.27h-1.75v-6.18q0-.78-0.05-1.35a6.54,6.54,0,0,0-.2-1.11,2.67,2.67,0,0,0-.39-0.88,1.74,1.74,0,0,0-.66-0.53,2.2,2.2,0,0,0-1-.2,3.43,3.43,0,0,0-2.11.64,3.1,3.1,0,0,0-1.15,1.7,15.25,15.25,0,0,0-.09,1.75v6.16h-1.75q0-10.79,0-11.51h1.47l0.22,1.65a4.22,4.22,0,0,1,1.49-1.34,4.38,4.38,0,0,1,2.19-.55,5,5,0,0,1,1.18.13,3.66,3.66,0,0,1,.9.33,3,3,0,0,1,.64.48,2.65,2.65,0,0,1,.44.55,3.3,3.3,0,0,1,.26.56,4.21,4.21,0,0,1,3.85-2,3.43,3.43,0,0,1,2.82,1.1,5,5,0,0,1,.9,3.25v7.41h-1.75Z"/></g><g class="cls-4"><path class="cls-7" d="M923.35,221.67H925v15.69h-1.86V223.61a10.73,10.73,0,0,1-2.59,1.19V223l0.68-.29,0.77-.34,0.65-.33A6.51,6.51,0,0,0,923.35,221.67Z"/><path class="cls-7" d="M929.49,237.49a1.3,1.3,0,0,1-1-.42,1.47,1.47,0,0,1,0-1.95,1.5,1.5,0,0,1,2.06,0,1.48,1.48,0,0,1,0,2A1.31,1.31,0,0,1,929.49,237.49Z"/><path class="cls-7" d="M937.14,237.6a7.88,7.88,0,0,1-2.5-.37,4.31,4.31,0,0,1-1.6-.85l0.59-1.54a5.52,5.52,0,0,0,3.52,1.17,3.75,3.75,0,0,0,2.5-.78,2.7,2.7,0,0,0,.93-2.19,3.49,3.49,0,0,0-.24-1.34,2.49,2.49,0,0,0-.63-0.92,3,3,0,0,0-1-.57,6.55,6.55,0,0,0-1.26-.3,13.39,13.39,0,0,0-1.5-.11h-0.63v-1.56h0.53a12.15,12.15,0,0,0,1.29-.08,6.08,6.08,0,0,0,1.12-.25,2.86,2.86,0,0,0,.93-0.47,2.14,2.14,0,0,0,.6-0.79,2.72,2.72,0,0,0,.23-1.17q0-2.52-2.88-2.52a6.12,6.12,0,0,0-2,.3,5.1,5.1,0,0,0-1.56.82L933,222.55a7.33,7.33,0,0,1,4.5-1.19,5.45,5.45,0,0,1,2.19.44,4,4,0,0,1,1.66,1.33,3.49,3.49,0,0,1,.65,2.1,3.85,3.85,0,0,1-.72,2.41,4,4,0,0,1-2,1.35,3.84,3.84,0,0,1,2.3,1.37,4.21,4.21,0,0,1,.83,2.68,4.09,4.09,0,0,1-1.48,3.3A5.72,5.72,0,0,1,937.14,237.6Z"/><path class="cls-7" d="M955.23,237.6a5.05,5.05,0,0,1-3.95-1.59,6.26,6.26,0,0,1-1.44-4.36,6.52,6.52,0,0,1,1.4-4.34,4.65,4.65,0,0,1,3.67-1.69,4.24,4.24,0,0,1,3.39,1.46,5.81,5.81,0,0,1,1.25,3.91c0,0.08,0,.24,0,0.46s0,0.38,0,.48h-7.9a4.54,4.54,0,0,0,1,3.06,3.36,3.36,0,0,0,2.64,1.1,7.81,7.81,0,0,0,3.66-1l0.27,1.42A7.52,7.52,0,0,1,955.23,237.6ZM957,228a2.61,2.61,0,0,0-2.11-.92,2.81,2.81,0,0,0-2.19.95,4.36,4.36,0,0,0-1,2.6h6.07A4,4,0,0,0,957,228Z"/><path class="cls-7" d="M976.6,237.36v-6q0-.84,0-1.41a7.48,7.48,0,0,0-.17-1.15,2.64,2.64,0,0,0-.37-0.93,1.76,1.76,0,0,0-.66-0.56,2.2,2.2,0,0,0-1-.21,3.15,3.15,0,0,0-2,.62,3.35,3.35,0,0,0-1.16,1.74,12.93,12.93,0,0,0-.09,1.62v6.27h-1.75v-6.18q0-.78-0.05-1.35a6.55,6.55,0,0,0-.2-1.11,2.67,2.67,0,0,0-.39-0.88,1.75,1.75,0,0,0-.66-0.54,2.21,2.21,0,0,0-1-.2,3.42,3.42,0,0,0-2.11.64,3.08,3.08,0,0,0-1.15,1.7,15.22,15.22,0,0,0-.09,1.75v6.16H962q0-10.79,0-11.51h1.47l0.22,1.65a4.23,4.23,0,0,1,1.49-1.34,4.37,4.37,0,0,1,2.19-.55,5,5,0,0,1,1.18.13,3.7,3.7,0,0,1,.9.33,2.92,2.92,0,0,1,.64.48,2.68,2.68,0,0,1,.44.54,3.23,3.23,0,0,1,.26.56,4.21,4.21,0,0,1,3.85-2,3.43,3.43,0,0,1,2.82,1.1,5,5,0,0,1,.9,3.25v7.41H976.6Z"/></g><g class="cls-4"><path class="cls-7" d="M929.15,280a5.17,5.17,0,0,1-4.88,0,4.59,4.59,0,0,1-1.68-1.73,8.88,8.88,0,0,1-.94-2.56,15.39,15.39,0,0,1-.31-3.22,16.66,16.66,0,0,1,.2-2.7,9.75,9.75,0,0,1,.63-2.24,6.09,6.09,0,0,1,1.06-1.71,4.36,4.36,0,0,1,1.52-1.09,4.88,4.88,0,0,1,2-.38,4.73,4.73,0,0,1,2.38.59,4.57,4.57,0,0,1,1.68,1.67,8.62,8.62,0,0,1,1,2.56,15.37,15.37,0,0,1,.33,3.3,15.74,15.74,0,0,1-.3,3.22,8.9,8.9,0,0,1-.93,2.56A4.56,4.56,0,0,1,929.15,280Zm-0.6-13.19a2.42,2.42,0,0,0-3.67,0,5.44,5.44,0,0,0-1.15,2.29,13.05,13.05,0,0,0-.38,3.33,13.57,13.57,0,0,0,.38,3.39,5.56,5.56,0,0,0,1.15,2.33,2.39,2.39,0,0,0,3.67,0,5.55,5.55,0,0,0,1.15-2.33,13.57,13.57,0,0,0,.38-3.39,13.05,13.05,0,0,0-.38-3.33A5.43,5.43,0,0,0,928.55,266.77Z"/><path class="cls-7" d="M935.94,280.45a1.3,1.3,0,0,1-1-.41,1.46,1.46,0,0,1,0-1.95,1.49,1.49,0,0,1,2.06,0,1.48,1.48,0,0,1,0,2A1.31,1.31,0,0,1,935.94,280.45Z"/><path class="cls-7" d="M944.61,280.57a6.65,6.65,0,0,1-2.58-.48,4.28,4.28,0,0,1-1.86-1.46,3.89,3.89,0,0,1-.71-2.34,4.14,4.14,0,0,1,.86-2.61,4.82,4.82,0,0,1,2.4-1.62,3.82,3.82,0,0,1-2.94-3.78,3.48,3.48,0,0,1,1.34-2.91,5.5,5.5,0,0,1,3.48-1,5.39,5.39,0,0,1,3.45,1,3.5,3.5,0,0,1,1.32,2.91,3.75,3.75,0,0,1-.71,2.33,4.48,4.48,0,0,1-2,1.45,4.54,4.54,0,0,1,2.22,1.62,4.32,4.32,0,0,1,.81,2.61,3.76,3.76,0,0,1-1.45,3.15A5.75,5.75,0,0,1,944.61,280.57Zm0-7.62a5.27,5.27,0,0,0-2.4,1.16,2.64,2.64,0,0,0-.9,2,2.5,2.5,0,0,0,.93,2.05,3.63,3.63,0,0,0,2.37.76,3.53,3.53,0,0,0,2.34-.76,2.54,2.54,0,0,0,.91-2.05,2.69,2.69,0,0,0-.88-2.06A5.08,5.08,0,0,0,944.61,273Zm0-7a3.51,3.51,0,0,0-2.1.62,2,2,0,0,0-.87,1.7q0,2.48,3,3.14,2.93-.66,2.93-3.14a2,2,0,0,0-.85-1.7A3.43,3.43,0,0,0,944.61,265.92Z"/><path class="cls-7" d="M953.52,280.33l5.39-14.07h-7.08l0.12-1.63H961v1.43l-5.61,14.27h-1.91Z"/><path class="cls-7" d="M972.35,264.63l-0.15,1.72h-6.41q-0.11,3.05-.16,4.94a4.69,4.69,0,0,1,2.57-.75,5.51,5.51,0,0,1,2.08.37,4,4,0,0,1,1.5,1,4.48,4.48,0,0,1,.89,1.52,5.61,5.61,0,0,1,.3,1.87,5,5,0,0,1-1.53,3.81,5.82,5.82,0,0,1-4.15,1.43,6,6,0,0,1-4.22-1.44l0.68-1.48a5.67,5.67,0,0,0,3.6,1.22,3.72,3.72,0,0,0,2.72-1,3.41,3.41,0,0,0,1-2.55,3,3,0,0,0-3.23-3.16,3.21,3.21,0,0,0-2.5,1l-1.46-.2,0.41-8.39h8Z"/><path class="cls-7" d="M985.89,280.57a5.06,5.06,0,0,1-3.95-1.59,6.26,6.26,0,0,1-1.44-4.36,6.52,6.52,0,0,1,1.4-4.34,4.65,4.65,0,0,1,3.67-1.69A4.24,4.24,0,0,1,989,270a5.8,5.8,0,0,1,1.25,3.91c0,0.08,0,.24,0,0.46s0,0.38,0,.48h-7.9a4.54,4.54,0,0,0,1,3.06A3.36,3.36,0,0,0,986,279a7.81,7.81,0,0,0,3.66-1l0.27,1.42A7.51,7.51,0,0,1,985.89,280.57Zm1.77-9.62a2.61,2.61,0,0,0-2.11-.92,2.81,2.81,0,0,0-2.19.95,4.36,4.36,0,0,0-1,2.6h6.07A4,4,0,0,0,987.66,270.94Z"/><path class="cls-7" d="M1007.26,280.33v-6q0-.84,0-1.41a7.43,7.43,0,0,0-.17-1.15,2.65,2.65,0,0,0-.37-0.93,1.74,1.74,0,0,0-.66-0.55,2.17,2.17,0,0,0-1-.22,3.15,3.15,0,0,0-2,.62,3.36,3.36,0,0,0-1.16,1.74,12.94,12.94,0,0,0-.09,1.62v6.27h-1.75v-6.18q0-.78-0.05-1.35a6.54,6.54,0,0,0-.2-1.11,2.67,2.67,0,0,0-.39-0.88,1.74,1.74,0,0,0-.66-0.53,2.2,2.2,0,0,0-1-.2,3.43,3.43,0,0,0-2.11.64,3.1,3.1,0,0,0-1.15,1.7,15.25,15.25,0,0,0-.09,1.75v6.16h-1.75q0-10.79,0-11.51h1.47l0.22,1.65a4.22,4.22,0,0,1,1.49-1.34,4.38,4.38,0,0,1,2.19-.55,5,5,0,0,1,1.18.13,3.66,3.66,0,0,1,.9.33,3,3,0,0,1,.64.48,2.65,2.65,0,0,1,.44.55,3.3,3.3,0,0,1,.26.56,4.21,4.21,0,0,1,3.85-2,3.43,3.43,0,0,1,2.82,1.1,5,5,0,0,1,.9,3.25v7.41h-1.75Z"/></g><g class="cls-4"><path class="cls-7" d="M923.35,307.6H925v15.69h-1.86V309.54a10.81,10.81,0,0,1-2.59,1.19V309l0.68-.29,0.77-.34c0.17-.08.39-0.18,0.65-0.33A6.35,6.35,0,0,0,923.35,307.6Z"/><path class="cls-7" d="M935.71,322.92a5.17,5.17,0,0,1-4.88,0,4.59,4.59,0,0,1-1.68-1.73,8.88,8.88,0,0,1-.94-2.56,15.39,15.39,0,0,1-.31-3.22,16.66,16.66,0,0,1,.2-2.7,9.75,9.75,0,0,1,.63-2.24,6.09,6.09,0,0,1,1.06-1.71,4.36,4.36,0,0,1,1.52-1.09,4.88,4.88,0,0,1,2-.38,4.73,4.73,0,0,1,2.38.59,4.57,4.57,0,0,1,1.68,1.67,8.62,8.62,0,0,1,1,2.56,15.37,15.37,0,0,1,.33,3.3,15.74,15.74,0,0,1-.3,3.22,8.9,8.9,0,0,1-.93,2.56A4.56,4.56,0,0,1,935.71,322.92Zm-0.6-13.19a2.42,2.42,0,0,0-3.67,0,5.44,5.44,0,0,0-1.15,2.29,13.05,13.05,0,0,0-.38,3.33,13.57,13.57,0,0,0,.38,3.39,5.56,5.56,0,0,0,1.15,2.33,2.39,2.39,0,0,0,3.67,0,5.55,5.55,0,0,0,1.15-2.33,13.57,13.57,0,0,0,.38-3.39,13.05,13.05,0,0,0-.38-3.33A5.43,5.43,0,0,0,935.11,309.74Z"/><path class="cls-7" d="M948.73,322.92a5.17,5.17,0,0,1-4.88,0,4.59,4.59,0,0,1-1.68-1.73,8.88,8.88,0,0,1-.94-2.56,15.39,15.39,0,0,1-.31-3.22,16.66,16.66,0,0,1,.2-2.7,9.75,9.75,0,0,1,.63-2.24,6.09,6.09,0,0,1,1.06-1.71,4.36,4.36,0,0,1,1.52-1.09,4.88,4.88,0,0,1,2-.38,4.73,4.73,0,0,1,2.38.59,4.57,4.57,0,0,1,1.68,1.67,8.62,8.62,0,0,1,1,2.56,15.37,15.37,0,0,1,.33,3.3,15.74,15.74,0,0,1-.3,3.22,8.9,8.9,0,0,1-.93,2.56A4.56,4.56,0,0,1,948.73,322.92Zm-0.6-13.19a2.42,2.42,0,0,0-3.67,0,5.44,5.44,0,0,0-1.15,2.29,13.05,13.05,0,0,0-.38,3.33,13.57,13.57,0,0,0,.38,3.39,5.56,5.56,0,0,0,1.15,2.33,2.39,2.39,0,0,0,3.67,0,5.55,5.55,0,0,0,1.15-2.33,13.57,13.57,0,0,0,.38-3.39,13.05,13.05,0,0,0-.38-3.33A5.43,5.43,0,0,0,948.13,309.74Z"/><path class="cls-7" d="M957.19,307.68a3,3,0,0,1,2.44,1.14,4.48,4.48,0,0,1,.92,2.9,4.28,4.28,0,0,1-.92,2.83,3,3,0,0,1-2.43,1.11,3,3,0,0,1-2.42-1.11,4.34,4.34,0,0,1-.9-2.84,4.52,4.52,0,0,1,.91-2.9A2.93,2.93,0,0,1,957.19,307.68Zm0,1.16a1.64,1.64,0,0,0-1.47.84,3.75,3.75,0,0,0-.52,2,3.42,3.42,0,0,0,.52,2,1.8,1.8,0,0,0,3,0,3.42,3.42,0,0,0,.52-1.95,3.7,3.7,0,0,0-.54-2A1.66,1.66,0,0,0,957.19,308.84Zm-0.2,14.5L965.33,308H967l-8.62,15.38H957Zm10.8-8a3.42,3.42,0,0,1,2.74,1.12,4.31,4.31,0,0,1,1,2.92,4.26,4.26,0,0,1-1,2.89,3.85,3.85,0,0,1-5.45,0,4.83,4.83,0,0,1,0-5.81A3.39,3.39,0,0,1,967.8,315.38Zm1.75,2a2.26,2.26,0,0,0-3.49,0,3.58,3.58,0,0,0,0,4,2.26,2.26,0,0,0,3.49,0A3.58,3.58,0,0,0,969.54,317.4Z"/></g><g class="cls-4"><path class="cls-7" d="M929.15,365.89a5.17,5.17,0,0,1-4.88,0,4.59,4.59,0,0,1-1.68-1.73,8.88,8.88,0,0,1-.94-2.56,15.39,15.39,0,0,1-.31-3.22,16.66,16.66,0,0,1,.2-2.7,9.75,9.75,0,0,1,.63-2.24,6.09,6.09,0,0,1,1.06-1.71,4.36,4.36,0,0,1,1.52-1.09,4.88,4.88,0,0,1,2-.38,4.73,4.73,0,0,1,2.38.59,4.57,4.57,0,0,1,1.68,1.67,8.62,8.62,0,0,1,1,2.56,15.37,15.37,0,0,1,.33,3.3,15.74,15.74,0,0,1-.3,3.22,8.9,8.9,0,0,1-.93,2.56A4.56,4.56,0,0,1,929.15,365.89Zm-0.6-13.19a2.42,2.42,0,0,0-3.67,0,5.44,5.44,0,0,0-1.15,2.29,13.05,13.05,0,0,0-.38,3.33,13.57,13.57,0,0,0,.38,3.39,5.56,5.56,0,0,0,1.15,2.33,2.39,2.39,0,0,0,3.67,0,5.55,5.55,0,0,0,1.15-2.33,13.57,13.57,0,0,0,.38-3.39,13.05,13.05,0,0,0-.38-3.33A5.43,5.43,0,0,0,928.55,352.7Z"/><path class="cls-7" d="M935.94,366.39a1.3,1.3,0,0,1-1-.41,1.46,1.46,0,0,1,0-1.95,1.49,1.49,0,0,1,2.06,0,1.48,1.48,0,0,1,0,2A1.31,1.31,0,0,1,935.94,366.39Z"/><path class="cls-7" d="M941.12,366.26l5.39-14.07h-7.08l0.12-1.63h9.09V352L943,366.26h-1.91Z"/><path class="cls-7" d="M960,350.57l-0.15,1.72H953.4q-0.11,3.05-.16,4.94a4.69,4.69,0,0,1,2.57-.75,5.51,5.51,0,0,1,2.08.37,4,4,0,0,1,1.5,1,4.48,4.48,0,0,1,.89,1.52,5.61,5.61,0,0,1,.3,1.87,5,5,0,0,1-1.53,3.81,5.82,5.82,0,0,1-4.15,1.43,6,6,0,0,1-4.22-1.44l0.68-1.48a5.67,5.67,0,0,0,3.6,1.22,3.72,3.72,0,0,0,2.72-1,3.41,3.41,0,0,0,1-2.55,3,3,0,0,0-3.23-3.16,3.21,3.21,0,0,0-2.5,1l-1.46-.2,0.41-8.39h8Z"/><path class="cls-7" d="M973.49,366.5a5.06,5.06,0,0,1-3.95-1.59,6.26,6.26,0,0,1-1.44-4.36,6.52,6.52,0,0,1,1.4-4.34,4.65,4.65,0,0,1,3.67-1.69,4.24,4.24,0,0,1,3.39,1.46,5.8,5.8,0,0,1,1.25,3.91c0,0.08,0,.24,0,0.46s0,0.38,0,.48h-7.9a4.54,4.54,0,0,0,1,3.06,3.36,3.36,0,0,0,2.64,1.1,7.81,7.81,0,0,0,3.66-1l0.27,1.42A7.51,7.51,0,0,1,973.49,366.5Zm1.77-9.62a2.61,2.61,0,0,0-2.11-.92,2.81,2.81,0,0,0-2.19.95,4.36,4.36,0,0,0-1,2.6H976A4,4,0,0,0,975.26,356.88Z"/><path class="cls-7" d="M994.86,366.26v-6q0-.84,0-1.41a7.43,7.43,0,0,0-.17-1.15,2.65,2.65,0,0,0-.37-0.93,1.74,1.74,0,0,0-.66-0.55,2.17,2.17,0,0,0-1-.22,3.15,3.15,0,0,0-2,.62,3.36,3.36,0,0,0-1.16,1.74,12.94,12.94,0,0,0-.09,1.62v6.27h-1.75v-6.18q0-.78-0.05-1.35a6.54,6.54,0,0,0-.2-1.11,2.67,2.67,0,0,0-.39-0.88,1.74,1.74,0,0,0-.66-0.53,2.2,2.2,0,0,0-1-.2,3.43,3.43,0,0,0-2.11.64,3.1,3.1,0,0,0-1.15,1.7,15.25,15.25,0,0,0-.09,1.75v6.16h-1.75q0-10.79,0-11.51h1.47l0.22,1.65a4.22,4.22,0,0,1,1.49-1.34,4.38,4.38,0,0,1,2.19-.55,5,5,0,0,1,1.18.13,3.66,3.66,0,0,1,.9.33,3,3,0,0,1,.64.48,2.65,2.65,0,0,1,.44.55,3.3,3.3,0,0,1,.26.56,4.21,4.21,0,0,1,3.85-2,3.43,3.43,0,0,1,2.82,1.1,5,5,0,0,1,.9,3.25v7.41h-1.75Z"/></g><g class="cls-4"><path class="cls-2" d="M184.52,328.16v-1.25h11.77v1.39H186a8.06,8.06,0,0,1,.89,1.94h-1.31l-0.22-.51-0.25-.58c-0.06-.13-0.14-0.29-0.24-0.48A5.15,5.15,0,0,0,184.52,328.16Z"/><path class="cls-2" d="M196.28,324.72l-1.29.18-4.52-4.07a5.87,5.87,0,0,0-1.18-.79,9,9,0,0,0-1.23-.55l-0.5-.18a2,2,0,0,0-1.51.54,2.09,2.09,0,0,0-.54,1.54,3.53,3.53,0,0,0,1,2.63l-1.18.46a4.47,4.47,0,0,1-1-3.18,3.64,3.64,0,0,1,.87-2.56,3,3,0,0,1,2.32-1l0.29,0.09,0.72,0.27c0.36,0.14.7,0.29,1,.44a11.85,11.85,0,0,1,1.05.58,5.91,5.91,0,0,1,1,.71l3.55,3.32v-5.45l1.21,0.09v6.88Z"/><path class="cls-2" d="M196.28,310.27v1.39H184.52v-3.79a6.28,6.28,0,0,1,.18-1.57,4,4,0,0,1,.55-1.24,2.47,2.47,0,0,1,1-.84,3.3,3.3,0,0,1,1.45-.3,5.39,5.39,0,0,1,1.22.13,3.19,3.19,0,0,1,1,.43,2.59,2.59,0,0,1,.78.8,4.11,4.11,0,0,1,.49,1.27,8,8,0,0,1,.18,1.8c0,0.54,0,1.18-.1,1.92h5Zm-6.12-2.05a5.1,5.1,0,0,0-.15-1.32,2.55,2.55,0,0,0-.37-0.85,1.52,1.52,0,0,0-.57-0.46,2.23,2.23,0,0,0-.65-0.21,5.47,5.47,0,0,0-.71,0,1.67,1.67,0,0,0-1.47.67,3.13,3.13,0,0,0-.47,1.83v2.43h4.38C190.16,309.26,190.16,308.57,190.16,308.21Z"/><path class="cls-2" d="M196.28,300.9v1.36H184.65V300.9h11.64Z"/><path class="cls-2" d="M196.28,289.76v1.57l-5.2,3.24,5.2,3.33v1.48l-6.07-4-5.56,3.72v-1.58l4.66-3-4.66-3.13v-1.46l5.54,3.74Z"/><path class="cls-2" d="M196.28,288.32H184.65v-6.67l1.2,0.05V287h3.81v-5h1.19v5h4.23v-5.43l1.2,0.06v6.73Z"/><path class="cls-2" d="M196.28,279.33H184.65V278h10.42v-5.12l1.21,0v6.44Z"/><path class="cls-2" d="M194.37,267.49a8.69,8.69,0,0,0,.9-3.89q0-2.56-2.33-2.56a1.8,1.8,0,0,0-1.22.41,2.86,2.86,0,0,0-.74,1.48l-0.58,2.31q-0.67,2.65-2.83,2.65a2.81,2.81,0,0,1-2.47-1.14,5.38,5.38,0,0,1-.81-3.15,8.22,8.22,0,0,1,.23-2,5.37,5.37,0,0,1,.61-1.54l1.11,0.39a6.18,6.18,0,0,0-.52,1.4,6.89,6.89,0,0,0-.23,1.76q0,2.85,2,2.85a1.39,1.39,0,0,0,1.07-.44,2.92,2.92,0,0,0,.62-1.31l0.54-2.21a4.36,4.36,0,0,1,1.08-2.15,2.89,2.89,0,0,1,2.11-.73,3.28,3.28,0,0,1,2.68,1.09,4.51,4.51,0,0,1,.9,3,9.8,9.8,0,0,1-.29,2.49,6.47,6.47,0,0,1-.68,1.73Z"/><path class="cls-2" d="M185.65,252.52a4,4,0,0,0,.64,2.26,3.86,3.86,0,0,0,1.71,1.41,6.23,6.23,0,0,0,2.48.46,6.79,6.79,0,0,0,1.91-.25,4.47,4.47,0,0,0,1.51-.75,3.33,3.33,0,0,0,1-1.31,4.51,4.51,0,0,0,.36-1.85,6.34,6.34,0,0,0-.7-2.78l1.16-.23a5.89,5.89,0,0,1,.74,3.17A6,6,0,0,1,196,255a4.5,4.5,0,0,1-1.24,1.72,5.45,5.45,0,0,1-1.9,1,8,8,0,0,1-2.46.35,7.22,7.22,0,0,1-2.41-.39,5.54,5.54,0,0,1-1.89-1.09,4.78,4.78,0,0,1-1.23-1.76,6.62,6.62,0,0,1,.42-5.65l1.11,0.54A5.23,5.23,0,0,0,185.65,252.52Z"/><path class="cls-2" d="M196.28,240l-3.69,1.36V246l3.69,1.41v1.38l-11.66-4.47V243l11.66-4.33V240Zm-4.83,1.8q-4.82,1.66-5.42,1.83l5.42,1.91v-3.74Z"/><path class="cls-2" d="M196.28,237.23H184.65v-1.37h10.42v-5.12l1.21,0v6.44Z"/><path class="cls-2" d="M196.28,229.2H184.65v-6.67l1.2,0.05v5.26h3.81v-5h1.19v5h4.23v-5.43l1.2,0.06v6.73Z"/></g><rect class="cls-3" x="171.56" y="605.92" width="40.86" height="253.74"/><g class="cls-4"><path class="cls-2" d="M184.52,785.48v-1.25h11.77v1.39H186a8.08,8.08,0,0,1,.89,1.94h-1.31l-0.22-.51-0.25-.58q-0.09-.19-0.24-0.48A4.93,4.93,0,0,0,184.52,785.48Z"/><path class="cls-2" d="M189,777.92a3.71,3.71,0,0,1,.47-1.83,3.57,3.57,0,0,1,1.33-1.35,3.68,3.68,0,0,1,1.92-.51,3.56,3.56,0,0,1,2.66,1.08,3.92,3.92,0,0,1,1.05,2.85,4.4,4.4,0,0,1-.31,1.68,3.46,3.46,0,0,1-.84,1.25,3.83,3.83,0,0,1-1.23.76,4.17,4.17,0,0,1-1.51.27,5.39,5.39,0,0,1-2.29-.47,13.78,13.78,0,0,1-2.56-1.7l-1.16-.94-1.38-1.15-0.6-.5v-1.82l4.94,4.14A3.73,3.73,0,0,1,189,777.92Zm3.68,2.71a3,3,0,0,0,1.27-.26,2.16,2.16,0,0,0,.92-0.83,2.44,2.44,0,0,0,.36-1.34,2.37,2.37,0,0,0-.72-1.83,2.51,2.51,0,0,0-1.78-.67,2.6,2.6,0,0,0-1.84.67,2.37,2.37,0,0,0-.72,1.83,2.28,2.28,0,0,0,.7,1.83A2.68,2.68,0,0,0,192.72,780.63Z"/><path class="cls-2" d="M196.28,766.93v1.39H184.52v-3.79a6.28,6.28,0,0,1,.18-1.57,4,4,0,0,1,.55-1.24,2.47,2.47,0,0,1,1-.84,3.3,3.3,0,0,1,1.45-.3,5.39,5.39,0,0,1,1.22.13,3.19,3.19,0,0,1,1,.43,2.59,2.59,0,0,1,.78.8,4.11,4.11,0,0,1,.49,1.27,8,8,0,0,1,.18,1.8c0,0.54,0,1.18-.1,1.92h5Zm-6.12-2.05a5.1,5.1,0,0,0-.15-1.32,2.55,2.55,0,0,0-.37-0.85,1.52,1.52,0,0,0-.57-0.46,2.23,2.23,0,0,0-.65-0.21,5.47,5.47,0,0,0-.71,0,1.67,1.67,0,0,0-1.47.67,3.13,3.13,0,0,0-.47,1.83v2.43h4.38C190.16,765.92,190.16,765.24,190.16,764.88Z"/><path class="cls-2" d="M196.28,757.56v1.36H184.65v-1.36h11.64Z"/><path class="cls-2" d="M196.28,746.42V748l-5.2,3.24,5.2,3.33V756l-6.07-4-5.56,3.72V754.2l4.66-3-4.66-3.13V746.6l5.54,3.74Z"/><path class="cls-2" d="M196.28,745H184.65v-6.67l1.2,0.05v5.26h3.81v-5h1.19v5h4.23v-5.43l1.2,0.06V745Z"/><path class="cls-2" d="M196.28,736H184.65v-1.37h10.42V729.5l1.21,0V736Z"/><path class="cls-2" d="M194.37,724.16a8.69,8.69,0,0,0,.9-3.89q0-2.56-2.33-2.56a1.8,1.8,0,0,0-1.22.41,2.86,2.86,0,0,0-.74,1.48l-0.58,2.31q-0.67,2.65-2.83,2.65a2.81,2.81,0,0,1-2.47-1.14,5.38,5.38,0,0,1-.81-3.15,8.22,8.22,0,0,1,.23-2,5.37,5.37,0,0,1,.61-1.54l1.11,0.39a6.18,6.18,0,0,0-.52,1.4,6.89,6.89,0,0,0-.23,1.76q0,2.85,2,2.85a1.39,1.39,0,0,0,1.07-.44,2.92,2.92,0,0,0,.62-1.31l0.54-2.21a4.36,4.36,0,0,1,1.08-2.15,2.89,2.89,0,0,1,2.11-.73,3.28,3.28,0,0,1,2.68,1.09,4.51,4.51,0,0,1,.9,3,9.8,9.8,0,0,1-.29,2.49,6.47,6.47,0,0,1-.68,1.73Z"/><path class="cls-2" d="M185.65,709.18a4,4,0,0,0,.64,2.26,3.86,3.86,0,0,0,1.71,1.41,6.23,6.23,0,0,0,2.48.46,6.79,6.79,0,0,0,1.91-.25,4.47,4.47,0,0,0,1.51-.75,3.33,3.33,0,0,0,1-1.31,4.51,4.51,0,0,0,.36-1.85,6.34,6.34,0,0,0-.7-2.78l1.16-.23a5.89,5.89,0,0,1,.74,3.17,6,6,0,0,1-.44,2.36,4.5,4.5,0,0,1-1.24,1.72,5.45,5.45,0,0,1-1.9,1,8,8,0,0,1-2.46.35,7.22,7.22,0,0,1-2.41-.39,5.54,5.54,0,0,1-1.89-1.09,4.78,4.78,0,0,1-1.23-1.76,6.62,6.62,0,0,1,.42-5.65l1.11,0.54A5.23,5.23,0,0,0,185.65,709.18Z"/><path class="cls-2" d="M196.28,696.69L192.59,698v4.64l3.69,1.41v1.38L184.63,701v-1.39l11.66-4.33v1.4Zm-4.83,1.8q-4.82,1.66-5.42,1.83l5.42,1.91v-3.74Z"/><path class="cls-2" d="M196.28,693.9H184.65v-1.37h10.42V687.4l1.21,0v6.44Z"/><path class="cls-2" d="M196.28,685.86H184.65v-6.67l1.2,0.05v5.26h3.81v-5h1.19v5h4.23v-5.43l1.2,0.06v6.73Z"/></g><rect class="cls-2" x="223.21" y="604.64" width="240.74" height="254.03"/><rect class="cls-2" x="509.74" y="604.64" width="240.74" height="254.03"/><rect class="cls-2" x="795.28" y="604.64" width="240.74" height="254.03"/><g class="cls-4"><path class="cls-5" d="M302.33,559.45V540.19h6.4a11.45,11.45,0,0,1,3.88.58,5.24,5.24,0,0,1,2.55,1.89,5.52,5.52,0,0,1,.94,3.29,7.78,7.78,0,0,1-.35,2.45,5,5,0,0,1-3.46,3.29,11.78,11.78,0,0,1-3.56.47q-1.78,0-2.9-.11v7.39h-3.5Zm6-9.86a7.54,7.54,0,0,0,1.89-.21,3.74,3.74,0,0,0,1.26-.54,2.47,2.47,0,0,0,.72-0.81,3.17,3.17,0,0,0,.35-0.94,5.53,5.53,0,0,0,.08-1,2.92,2.92,0,0,0-1-2.41,4.48,4.48,0,0,0-2.88-.83h-2.92v6.73Q306,549.59,308.35,549.59Z"/><path class="cls-5" d="M318.84,559.45V540.24h3.55v19.21h-3.55Z"/><path class="cls-5" d="M324.42,559.45l6.73-9.83-6.23-9.37h4l4.52,7.16,4.65-7.16h3.79l-6.36,9.43,6.7,9.78h-4.1L333.28,552l-5,7.47h-3.89Z"/><path class="cls-5" d="M344.17,559.45V540.24h11.64l-0.14,2.82h-7.95v5h7.55v2.82h-7.55v5.78H356l-0.12,2.83H344.17Z"/><path class="cls-5" d="M359.28,559.45V540.24h3.55v16.38h8l-0.1,2.83H359.28Z"/><path class="cls-5" d="M378.71,559.71a12.15,12.15,0,0,1-6.23-1.6l0.87-2.82a12.93,12.93,0,0,0,2.68,1.1,10.16,10.16,0,0,0,2.83.42,3.88,3.88,0,0,0,2.56-.73,2.58,2.58,0,0,0,.87-2.09q0-1.81-2.41-2.51l-1-.28-1.48-.45q-0.69-.22-1-0.34-3.87-1.36-3.87-5.09a4.76,4.76,0,0,1,1.86-4,7.9,7.9,0,0,1,4.92-1.42,12,12,0,0,1,6,1.43l-1.08,2.6a11.72,11.72,0,0,0-4.77-1.15,4.22,4.22,0,0,0-2.39.56,2.21,2.21,0,0,0-.86,1.86,2,2,0,0,0,1.59,2.09l1.55,0.51,1.6,0.51a8.53,8.53,0,0,1,3.77,2.15,5.23,5.23,0,0,1,1.13,3.58,5,5,0,0,1-1.94,4.21A8.44,8.44,0,0,1,378.71,559.71Z"/></g><g class="cls-4"><path class="cls-6" d="M479.41,715v-2.53h13.35V715H479.41Zm0,5.21V717.7h13.35v2.51H479.41Z"/></g><g class="cls-4"><path class="cls-6" d="M767.35,715v-2.53H780.7V715H767.35Zm0,5.21V717.7H780.7v2.51H767.35Z"/></g><g class="cls-4"><path class="cls-5" d="M534.73,559.45V540.19h6.4a11.46,11.46,0,0,1,3.88.58,5.24,5.24,0,0,1,2.55,1.89,5.52,5.52,0,0,1,.94,3.29,7.75,7.75,0,0,1-.35,2.45,5,5,0,0,1-3.46,3.29,11.77,11.77,0,0,1-3.56.47q-1.78,0-2.9-.11v7.39h-3.5Zm6-9.86a7.54,7.54,0,0,0,1.89-.21,3.75,3.75,0,0,0,1.26-.54,2.47,2.47,0,0,0,.72-0.81,3.2,3.2,0,0,0,.35-0.94,5.53,5.53,0,0,0,.08-1,2.92,2.92,0,0,0-1-2.41,4.48,4.48,0,0,0-2.88-.83h-2.92v6.73Q538.39,549.59,540.75,549.59Z"/><path class="cls-5" d="M551.15,559.45V540.24h11.64l-0.14,2.82H554.7v5h7.55v2.82H554.7v5.78h8.23l-0.12,2.83H551.15Z"/><path class="cls-5" d="M566.16,559.45V540.19h7.12a20.94,20.94,0,0,1,2.52.13,9.2,9.2,0,0,1,2,.48,4.17,4.17,0,0,1,1.56.94,4.11,4.11,0,0,1,.95,1.54,6.59,6.59,0,0,1,.35,2.25,4.85,4.85,0,0,1-3.47,5,14.22,14.22,0,0,1,1.76,3l2.86,5.93h-3.88l-2.24-5q-1.27-2.7-1.57-3.2h-1.48l-3,0v8.26h-3.51Zm7.44-10.8a4.67,4.67,0,0,0,2.94-.73,2.85,2.85,0,0,0,.89-2.34,2.42,2.42,0,0,0-.9-2.09,4.66,4.66,0,0,0-2.77-.67h-4.08v5.81h3.92Z"/><path class="cls-5" d="M592.86,559.72a8.68,8.68,0,0,1-6.67-2.65,10.32,10.32,0,0,1-2.47-7.32,9.83,9.83,0,0,1,2.58-7.11A8.93,8.93,0,0,1,593,540a10,10,0,0,1,5.7,1.56l-1.12,2.69a8.55,8.55,0,0,0-4.51-1.38,5.1,5.1,0,0,0-4.19,1.91,9.47,9.47,0,0,0-.05,10.27,5.16,5.16,0,0,0,4.24,1.82,10.48,10.48,0,0,0,4.79-1.21l0.47,2.78A10.65,10.65,0,0,1,592.86,559.72Z"/><path class="cls-5" d="M601.54,559.45V540.24h11.64L613,543.06h-7.95v5h7.55v2.82h-7.55v5.78h8.23l-0.12,2.83H601.54Z"/><path class="cls-5" d="M616.64,559.45V540.24h3.78l4.16,6.45,3.82,5.9,0.67,1,0.68,1q-0.09-4.5-.09-4.67v-9.72h3.24v19.21h-3.83l-8.67-13.5-0.63-1q0.1,3.46.1,4.87v9.68h-3.23Z"/><path class="cls-5" d="M640.73,559.45V543.09h-5.6v-2.85h14.74v2.85h-5.57v16.36h-3.57Z"/><path class="cls-5" d="M649.68,559.45l7.07-19.22h3.87l7,19.22h-3.65L662,554h-6.73l-1.92,5.43h-3.71Zm6.52-8.08h4.93q-2.36-7.56-2.43-7.81Z"/><path class="cls-5" d="M678,559.72a8.93,8.93,0,0,1-6.86-2.65,10.2,10.2,0,0,1-2.47-7.25,11,11,0,0,1,1.15-5.15,8.24,8.24,0,0,1,3.4-3.47,10.74,10.74,0,0,1,5.3-1.25,11.44,11.44,0,0,1,6,1.51l-1.15,2.65a10,10,0,0,0-4.79-1.29,5.79,5.79,0,0,0-4.58,1.89,7.5,7.5,0,0,0-1.67,5.14,8,8,0,0,0,1.48,5.1,5.2,5.2,0,0,0,4.34,1.88,9.18,9.18,0,0,0,3.33-.58V551.8h-4l0-2.79h7.34v9.27a20.89,20.89,0,0,1-3.38,1.09A15.9,15.9,0,0,1,678,559.72Z"/><path class="cls-5" d="M688.68,559.45V540.24h11.64l-0.14,2.82h-7.95v5h7.55v2.82h-7.55v5.78h8.23l-0.12,2.83H688.68Z"/><path class="cls-5" d="M709.17,559.71a12.15,12.15,0,0,1-6.23-1.6l0.87-2.82a12.94,12.94,0,0,0,2.68,1.1,10.15,10.15,0,0,0,2.83.42,3.88,3.88,0,0,0,2.56-.73,2.58,2.58,0,0,0,.87-2.09q0-1.81-2.41-2.51l-1-.28-1.47-.45q-0.69-.22-1-0.34-3.87-1.36-3.87-5.09a4.76,4.76,0,0,1,1.86-4,7.9,7.9,0,0,1,4.92-1.42,12,12,0,0,1,6,1.43l-1.08,2.6a11.73,11.73,0,0,0-4.77-1.15,4.22,4.22,0,0,0-2.39.56,2.21,2.21,0,0,0-.86,1.86,2,2,0,0,0,1.59,2.09l1.55,0.51,1.6,0.51a8.53,8.53,0,0,1,3.77,2.15,5.23,5.23,0,0,1,1.13,3.58,5,5,0,0,1-1.94,4.21A8.44,8.44,0,0,1,709.17,559.71Z"/></g><g class="cls-4"><path class="cls-5" d="M890.23,559.45V540.24h11.64l-0.14,2.82h-7.95v5h7.55v2.82h-7.55v5.78H902l-0.12,2.83H890.23Z"/><path class="cls-5" d="M905.33,559.45V540.24h4.2l5.81,13.87,5.85-13.87h4.14v19.21h-3.28V550l0.11-5.44L921.67,546l-4.92,12.18h-3l-4.81-12.25-0.48-1.44,0.12,5.56v9.44h-3.2Z"/><path class="cls-5" d="M934.86,559.71a12.15,12.15,0,0,1-6.23-1.6l0.87-2.82a12.94,12.94,0,0,0,2.68,1.1,10.15,10.15,0,0,0,2.83.42,3.88,3.88,0,0,0,2.56-.73,2.58,2.58,0,0,0,.87-2.09q0-1.81-2.41-2.51l-1-.28-1.47-.45q-0.69-.22-1-0.34-3.87-1.36-3.87-5.09a4.76,4.76,0,0,1,1.86-4,7.9,7.9,0,0,1,4.92-1.42,12,12,0,0,1,6,1.43l-1.08,2.6a11.73,11.73,0,0,0-4.77-1.15,4.22,4.22,0,0,0-2.39.56,2.21,2.21,0,0,0-.86,1.86,2,2,0,0,0,1.59,2.09l1.55,0.51,1.6,0.51a8.53,8.53,0,0,1,3.77,2.15A5.23,5.23,0,0,1,942,554a5,5,0,0,1-1.94,4.21A8.44,8.44,0,0,1,934.86,559.71Z"/></g><g class="cls-4"><path class="cls-6" d="M286.76,649.83v-7a4.47,4.47,0,0,0-.55-2.52,2.18,2.18,0,0,0-1.92-.79,3.69,3.69,0,0,0-2.23.66,3,3,0,0,0-1.18,1.71,14.86,14.86,0,0,0-.09,1.75v6.14H279v-16l1.75-.11v4.68q0,0.6,0,1.48a4.8,4.8,0,0,1,3.92-1.83q3.85,0,3.85,4.52v7.23h-1.75Z"/><path class="cls-6" d="M292.34,634.14H294v15.69h-1.86V636.08a10.7,10.7,0,0,1-2.59,1.19v-1.75l0.68-.29,0.77-.34c0.17-.08.39-0.19,0.64-0.32A6.76,6.76,0,0,0,292.34,634.14Z"/></g><g class="cls-4"><path class="cls-6" d="M286.76,692.8v-7a4.47,4.47,0,0,0-.55-2.52,2.18,2.18,0,0,0-1.92-.79,3.69,3.69,0,0,0-2.23.66,3,3,0,0,0-1.18,1.71,14.86,14.86,0,0,0-.09,1.75v6.14H279v-16l1.75-.11v4.68q0,0.6,0,1.48a4.8,4.8,0,0,1,3.92-1.83q3.85,0,3.85,4.52v7.23h-1.75Z"/><path class="cls-6" d="M290.36,692.8l-0.24-1.72,5.42-6a7.81,7.81,0,0,0,1.05-1.57,12,12,0,0,0,.74-1.64l0.24-.66a2.72,2.72,0,0,0-.72-2,2.8,2.8,0,0,0-2.06-.72,4.71,4.71,0,0,0-3.5,1.29l-0.61-1.57a6,6,0,0,1,4.24-1.36,4.87,4.87,0,0,1,3.41,1.16,4,4,0,0,1,1.27,3.1c0,0.1-.07.23-0.13,0.39s-0.18.48-.36,1-0.38.93-.58,1.35a15.62,15.62,0,0,1-.77,1.41,7.77,7.77,0,0,1-1,1.28l-4.43,4.73h7.27l-0.12,1.62h-9.18Z"/></g><g class="cls-4"><path class="cls-6" d="M286.76,735.77v-7a4.48,4.48,0,0,0-.55-2.52,2.19,2.19,0,0,0-1.92-.79,3.68,3.68,0,0,0-2.23.66,3,3,0,0,0-1.18,1.71,14.92,14.92,0,0,0-.09,1.75v6.14H279v-16l1.75-.1v4.68q0,0.6,0,1.48a4.8,4.8,0,0,1,3.92-1.82q3.85,0,3.85,4.52v7.23h-1.75Z"/><path class="cls-6" d="M294.37,736a7.82,7.82,0,0,1-2.5-.37,4.27,4.27,0,0,1-1.6-.85l0.59-1.54a5.53,5.53,0,0,0,3.53,1.16,3.75,3.75,0,0,0,2.5-.78,2.7,2.7,0,0,0,.93-2.19,3.48,3.48,0,0,0-.24-1.34,2.49,2.49,0,0,0-.63-0.92,3,3,0,0,0-1-.57,6.32,6.32,0,0,0-1.26-.3,13.64,13.64,0,0,0-1.5-.11h-0.63v-1.56h0.53a12.73,12.73,0,0,0,1.29-.08,6.28,6.28,0,0,0,1.12-.25,2.83,2.83,0,0,0,.93-0.47A2.17,2.17,0,0,0,297,725a2.71,2.71,0,0,0,.23-1.16q0-2.52-2.88-2.52a6.12,6.12,0,0,0-2,.3,5.08,5.08,0,0,0-1.56.82L290.27,721a7.35,7.35,0,0,1,4.5-1.19,5.49,5.49,0,0,1,2.19.44,4,4,0,0,1,1.66,1.33,3.49,3.49,0,0,1,.65,2.1,3.86,3.86,0,0,1-.72,2.41,4,4,0,0,1-2,1.35,3.85,3.85,0,0,1,2.3,1.38,4.21,4.21,0,0,1,.83,2.69,4.1,4.1,0,0,1-1.48,3.3A5.72,5.72,0,0,1,294.37,736Z"/></g><g class="cls-4"><path class="cls-6" d="M284.42,767a4.5,4.5,0,0,1,2.64.78,4.72,4.72,0,0,1,1.67,2.11,7.88,7.88,0,0,1,.56,3.05,8.28,8.28,0,0,1-.55,3.14,4.69,4.69,0,0,1-1.67,2.13,4.55,4.55,0,0,1-2.67.78,4.42,4.42,0,0,1-2.09-.49,4.55,4.55,0,0,1-1.57-1.34l-0.18,1.59h-1.5v-16l1.75-.11v3.81q0,1.4,0,2.41A4.48,4.48,0,0,1,284.42,767Zm-0.18,1.46a3,3,0,0,0-2.55,1.15,5.45,5.45,0,0,0-.89,3.37q0,4.55,3.43,4.55a3.07,3.07,0,0,0,1.49-.35,2.6,2.6,0,0,0,1-1,5,5,0,0,0,.56-1.43,8,8,0,0,0,.18-1.77,7.72,7.72,0,0,0-.31-2.31,3.33,3.33,0,0,0-1.05-1.61A2.84,2.84,0,0,0,284.24,768.44Z"/><path class="cls-6" d="M301.87,773a6.43,6.43,0,0,1-1.43,4.34A4.92,4.92,0,0,1,296.5,779a4.81,4.81,0,0,1-3.85-1.68,7.24,7.24,0,0,1,0-8.65A5,5,0,0,1,296.6,767a4.8,4.8,0,0,1,3.87,1.66A6.48,6.48,0,0,1,301.87,773ZM293,773a5.4,5.4,0,0,0,.91,3.28,3.08,3.08,0,0,0,2.65,1.23,3,3,0,0,0,2.6-1.23,6.74,6.74,0,0,0,0-6.62,3.44,3.44,0,0,0-5.26,0A5.51,5.51,0,0,0,293,773Z"/><path class="cls-6" d="M312.29,777.06a4.09,4.09,0,0,1-1.51,1.38,4.68,4.68,0,0,1-5.67-1.11,6.9,6.9,0,0,1-1.29-4.41,6.69,6.69,0,0,1,1.31-4.3,4.26,4.26,0,0,1,3.51-1.64,4.82,4.82,0,0,1,2.16.5,3.53,3.53,0,0,1,1.52,1.34l0-1v-5.07l1.73-.11v16.08h-1.49Zm-3.45.4a3,3,0,0,0,2.58-1.11,5.17,5.17,0,0,0,.84-3.18,6.21,6.21,0,0,0-.81-3.51,3,3,0,0,0-2.63-1.18,2.88,2.88,0,0,0-1.43.35,2.7,2.7,0,0,0-1,1,5,5,0,0,0-.57,1.42,7.5,7.5,0,0,0-.19,1.76,7.33,7.33,0,0,0,.33,2.33,3.31,3.31,0,0,0,1.06,1.57A2.82,2.82,0,0,0,308.84,777.46Z"/><path class="cls-6" d="M315.58,767.23h1.86l3.63,9.58,3.23-9.58h1.86q-4.66,12.82-4.82,13.22a6.47,6.47,0,0,1-1.75,2.66,4.13,4.13,0,0,1-2.71.84,7.26,7.26,0,0,1-1.06-.08l-0.1-1.49,0.88,0a3.09,3.09,0,0,0,1.8-.44,3.61,3.61,0,0,0,1.1-1.63q0.43-1.1.64-1.7Z"/></g><g class="cls-4"><path class="cls-7" d="M370.43,650.07a7.88,7.88,0,0,1-2.5-.37,4.28,4.28,0,0,1-1.6-.85l0.59-1.54a5.52,5.52,0,0,0,3.52,1.16,3.75,3.75,0,0,0,2.5-.78,2.7,2.7,0,0,0,.93-2.19,3.49,3.49,0,0,0-.24-1.34,2.5,2.5,0,0,0-.63-0.92,3,3,0,0,0-1-.57,6.61,6.61,0,0,0-1.26-.3,13.64,13.64,0,0,0-1.5-.11h-0.63v-1.56h0.52a12.21,12.21,0,0,0,1.3-.08,6.1,6.1,0,0,0,1.12-.25,2.84,2.84,0,0,0,.93-0.47,2.15,2.15,0,0,0,.6-0.79,2.73,2.73,0,0,0,.23-1.16q0-2.52-2.88-2.52a6.13,6.13,0,0,0-2,.3,5.13,5.13,0,0,0-1.56.82L366.33,635a7.34,7.34,0,0,1,4.5-1.19,5.46,5.46,0,0,1,2.19.44,3.94,3.94,0,0,1,1.66,1.33,3.49,3.49,0,0,1,.65,2.1,3.85,3.85,0,0,1-.72,2.41,4,4,0,0,1-2,1.35,3.84,3.84,0,0,1,2.3,1.37,4.21,4.21,0,0,1,.83,2.69,4.09,4.09,0,0,1-1.48,3.3A5.71,5.71,0,0,1,370.43,650.07Z"/><path class="cls-7" d="M378,649.83l-0.24-1.72,5.42-6a7.86,7.86,0,0,0,1.05-1.57,12.25,12.25,0,0,0,.74-1.64l0.24-.66a2.72,2.72,0,0,0-.72-2,2.79,2.79,0,0,0-2.05-.72,4.71,4.71,0,0,0-3.5,1.29l-0.61-1.57a6,6,0,0,1,4.24-1.36A4.87,4.87,0,0,1,386,635a4,4,0,0,1,1.27,3.1c0,0.1-.07.23-0.13,0.39s-0.18.48-.36,1-0.38.93-.58,1.35a15.9,15.9,0,0,1-.77,1.41,7.83,7.83,0,0,1-.95,1.28L380,648.22h7.27l-0.12,1.62H378Z"/><path class="cls-7" d="M390,654.83v-16.5h1.54l0.17,1.56a4.59,4.59,0,0,1,3.63-1.8,4.43,4.43,0,0,1,2.66.79,4.59,4.59,0,0,1,1.61,2.13,8.69,8.69,0,0,1,.52,3.14,7.8,7.8,0,0,1-.57,3.06,4.79,4.79,0,0,1-1.66,2.11,4.35,4.35,0,0,1-2.56.77,4.52,4.52,0,0,1-2.09-.5,4.29,4.29,0,0,1-1.56-1.32q0.06,1.13.06,2.2v4.25Zm5.1-6.23a2.8,2.8,0,0,0,2.44-1.35,5,5,0,0,0,.59-1.43,7.2,7.2,0,0,0,.2-1.74,5.8,5.8,0,0,0-.83-3.24,2.72,2.72,0,0,0-2.42-1.26q-3.34,0-3.34,4.31a6.46,6.46,0,0,0,.78,3.53A2.86,2.86,0,0,0,395.1,648.6Z"/><path class="cls-7" d="M405.43,644l-4.06-5.65h2l3.07,4.38,3.08-4.38h2L407.46,644l4.17,5.83H409.7l-3.24-4.62-3.24,4.63h-2Z"/></g><g class="cls-4"><path class="cls-7" d="M366.41,692.8l-0.24-1.72,5.42-6a7.86,7.86,0,0,0,1.05-1.57,12.15,12.15,0,0,0,.74-1.64l0.24-.66a2.71,2.71,0,0,0-.72-2,2.79,2.79,0,0,0-2.06-.72,4.71,4.71,0,0,0-3.5,1.29l-0.61-1.57a6,6,0,0,1,4.24-1.36,4.87,4.87,0,0,1,3.41,1.16,4,4,0,0,1,1.27,3.1c0,0.1-.07.23-0.13,0.39s-0.18.48-.36,1-0.38.93-.58,1.35a15.65,15.65,0,0,1-.77,1.41,7.72,7.72,0,0,1-.95,1.28l-4.43,4.73h7.27l-0.12,1.62h-9.18Z"/><path class="cls-7" d="M388.71,688.91h-1.78v3.89h-1.76v-3.89h-7.09v-1.61l6.89-10.2h2v10.28h1.93Zm-3.55-9.42-5.25,7.9h5.25v-7.9Z"/><path class="cls-7" d="M391.14,697.8V681.3h1.54l0.17,1.56a4.59,4.59,0,0,1,3.63-1.8,4.43,4.43,0,0,1,2.66.79,4.59,4.59,0,0,1,1.61,2.13,8.69,8.69,0,0,1,.52,3.14,7.8,7.8,0,0,1-.57,3.06,4.79,4.79,0,0,1-1.66,2.11,4.35,4.35,0,0,1-2.56.77,4.52,4.52,0,0,1-2.09-.5,4.29,4.29,0,0,1-1.56-1.32q0.06,1.13.06,2.2v4.25Zm5.1-6.23a2.8,2.8,0,0,0,2.44-1.35,5,5,0,0,0,.59-1.43,7.2,7.2,0,0,0,.2-1.74,5.8,5.8,0,0,0-.83-3.24,2.72,2.72,0,0,0-2.42-1.26q-3.34,0-3.34,4.31a6.46,6.46,0,0,0,.78,3.53A2.86,2.86,0,0,0,396.24,691.57Z"/><path class="cls-7" d="M406.56,687l-4.06-5.65h2l3.07,4.38,3.08-4.38h2L408.59,687l4.17,5.83h-1.94l-3.24-4.62-3.24,4.63h-2Z"/></g><g class="cls-4"><path class="cls-7" d="M368.4,720.07h1.67v15.69h-1.86V722a10.82,10.82,0,0,1-2.59,1.19v-1.75l0.68-.29,0.77-.33,0.64-.33A6.41,6.41,0,0,0,368.4,720.07Z"/><path class="cls-7" d="M378,736a6.65,6.65,0,0,1-2.58-.48,4.28,4.28,0,0,1-1.86-1.46,3.88,3.88,0,0,1-.71-2.34,4.14,4.14,0,0,1,.86-2.61,4.83,4.83,0,0,1,2.4-1.62,3.82,3.82,0,0,1-2.94-3.78,3.48,3.48,0,0,1,1.34-2.9,5.5,5.5,0,0,1,3.48-1.05,5.39,5.39,0,0,1,3.45,1.05,3.5,3.5,0,0,1,1.32,2.9,3.76,3.76,0,0,1-.71,2.33,4.5,4.5,0,0,1-2,1.45,4.55,4.55,0,0,1,2.22,1.62,4.32,4.32,0,0,1,.81,2.61,3.77,3.77,0,0,1-1.45,3.15A5.75,5.75,0,0,1,378,736Zm0-7.62a5.28,5.28,0,0,0-2.4,1.16,2.64,2.64,0,0,0-.9,2.05,2.51,2.51,0,0,0,.93,2.05,3.63,3.63,0,0,0,2.37.76,3.53,3.53,0,0,0,2.34-.76,2.54,2.54,0,0,0,.91-2.05,2.69,2.69,0,0,0-.88-2.06A5.07,5.07,0,0,0,378,728.39Zm0-7a3.51,3.51,0,0,0-2.1.62,2,2,0,0,0-.87,1.7q0,2.48,3,3.14,2.93-.66,2.93-3.14a2,2,0,0,0-.85-1.7A3.42,3.42,0,0,0,378,721.36Z"/><path class="cls-7" d="M385.7,740.76v-16.5h1.54l0.17,1.56A4.59,4.59,0,0,1,391,724a4.44,4.44,0,0,1,2.66.79,4.6,4.6,0,0,1,1.61,2.13,8.67,8.67,0,0,1,.52,3.13,7.77,7.77,0,0,1-.57,3.06,4.8,4.8,0,0,1-1.66,2.11A4.34,4.34,0,0,1,391,736a4.52,4.52,0,0,1-2.09-.5,4.29,4.29,0,0,1-1.56-1.32q0.06,1.13.06,2.2v4.25Zm5.1-6.23a2.82,2.82,0,0,0,1.43-.36,2.85,2.85,0,0,0,1-1,5,5,0,0,0,.59-1.43A7.19,7.19,0,0,0,394,730a5.81,5.81,0,0,0-.83-3.24,2.72,2.72,0,0,0-2.42-1.26q-3.34,0-3.34,4.31a6.45,6.45,0,0,0,.78,3.52A2.85,2.85,0,0,0,390.79,734.53Z"/><path class="cls-7" d="M401.11,729.91l-4.06-5.65h2l3.07,4.38,3.08-4.38h2l-4.07,5.68,4.18,5.83h-1.94l-3.24-4.63-3.24,4.63h-2Z"/></g><g class="cls-4"><path class="cls-7" d="M368.4,763h1.67v15.69h-1.86V765a10.67,10.67,0,0,1-2.59,1.19v-1.75l0.68-.29,0.77-.34,0.64-.32A6.74,6.74,0,0,0,368.4,763Z"/><path class="cls-7" d="M378.48,769.07a5,5,0,0,1,2.45.62,4.77,4.77,0,0,1,1.8,1.77,4.91,4.91,0,0,1,.68,2.55,4.75,4.75,0,0,1-1.44,3.54,5.21,5.21,0,0,1-3.8,1.41,5.87,5.87,0,0,1-2.24-.41,4.61,4.61,0,0,1-1.67-1.12,5.08,5.08,0,0,1-1-1.65,5.52,5.52,0,0,1-.36-2,7.2,7.2,0,0,1,.62-3.06,18.45,18.45,0,0,1,2.26-3.41l1.26-1.55,1.53-1.85,0.66-.8h2.42l-5.52,6.59A5,5,0,0,1,378.48,769.07ZM374.86,774a4,4,0,0,0,.35,1.69,2.88,2.88,0,0,0,1.1,1.23,3.26,3.26,0,0,0,1.79.48,3.16,3.16,0,0,0,2.44-1,3.36,3.36,0,0,0,.89-2.37,3.47,3.47,0,0,0-.89-2.45,3.16,3.16,0,0,0-2.44-1,3,3,0,0,0-2.44.93A3.57,3.57,0,0,0,374.86,774Z"/><path class="cls-7" d="M385.87,783.73v-16.5h1.54l0.17,1.56a4.59,4.59,0,0,1,3.63-1.8,4.43,4.43,0,0,1,2.66.79,4.59,4.59,0,0,1,1.61,2.13A8.69,8.69,0,0,1,396,773a7.8,7.8,0,0,1-.57,3.06,4.79,4.79,0,0,1-1.66,2.11,4.35,4.35,0,0,1-2.56.77,4.52,4.52,0,0,1-2.09-.5,4.29,4.29,0,0,1-1.56-1.32q0.06,1.13.06,2.2v4.25Zm5.1-6.23a2.8,2.8,0,0,0,2.44-1.35,5,5,0,0,0,.59-1.43,7.2,7.2,0,0,0,.2-1.74,5.8,5.8,0,0,0-.83-3.24,2.72,2.72,0,0,0-2.42-1.26q-3.34,0-3.34,4.31a6.46,6.46,0,0,0,.78,3.53A2.86,2.86,0,0,0,391,777.5Z"/><path class="cls-7" d="M401.29,772.88l-4.06-5.65h2l3.07,4.38,3.08-4.38h2l-4.07,5.67,4.17,5.83h-1.94l-3.24-4.62-3.24,4.63h-2Z"/></g><g class="cls-4"><path class="cls-6" d="M573.5,649.83v-7a4.47,4.47,0,0,0-.55-2.52,2.18,2.18,0,0,0-1.92-.79,3.69,3.69,0,0,0-2.23.66,3,3,0,0,0-1.18,1.71,14.86,14.86,0,0,0-.09,1.75v6.14h-1.75v-16l1.75-.11v4.68q0,0.6,0,1.48a4.8,4.8,0,0,1,3.92-1.83q3.85,0,3.85,4.52v7.23H573.5Z"/><path class="cls-6" d="M579.08,634.14h1.67v15.69h-1.86V636.08a10.7,10.7,0,0,1-2.59,1.19v-1.75l0.68-.29,0.77-.34c0.17-.08.39-0.19,0.64-0.32A6.76,6.76,0,0,0,579.08,634.14Z"/></g><g class="cls-4"><path class="cls-6" d="M573.5,692.8v-7a4.47,4.47,0,0,0-.55-2.52,2.18,2.18,0,0,0-1.92-.79,3.69,3.69,0,0,0-2.23.66,3,3,0,0,0-1.18,1.71,14.86,14.86,0,0,0-.09,1.75v6.14h-1.75v-16l1.75-.11v4.68q0,0.6,0,1.48a4.8,4.8,0,0,1,3.92-1.83q3.85,0,3.85,4.52v7.23H573.5Z"/><path class="cls-6" d="M577.1,692.8l-0.24-1.72,5.42-6a7.81,7.81,0,0,0,1.05-1.57,12,12,0,0,0,.74-1.64l0.24-.66a2.72,2.72,0,0,0-.72-2,2.8,2.8,0,0,0-2.06-.72,4.71,4.71,0,0,0-3.5,1.29l-0.61-1.57a6,6,0,0,1,4.24-1.36,4.87,4.87,0,0,1,3.41,1.16,4,4,0,0,1,1.27,3.1c0,0.1-.07.23-0.13,0.39s-0.18.48-.36,1-0.38.93-.58,1.35a15.62,15.62,0,0,1-.77,1.41,7.77,7.77,0,0,1-1,1.28l-4.43,4.73h7.27l-0.12,1.62H577.1Z"/></g><g class="cls-4"><path class="cls-6" d="M573.5,735.77v-7a4.48,4.48,0,0,0-.55-2.52,2.19,2.19,0,0,0-1.92-.79,3.68,3.68,0,0,0-2.23.66,3,3,0,0,0-1.18,1.71,14.92,14.92,0,0,0-.09,1.75v6.14h-1.75v-16l1.75-.1v4.68q0,0.6,0,1.48A4.8,4.8,0,0,1,571.4,724q3.85,0,3.85,4.52v7.23H573.5Z"/><path class="cls-6" d="M581.12,736a7.82,7.82,0,0,1-2.5-.37,4.27,4.27,0,0,1-1.6-.85l0.59-1.54a5.53,5.53,0,0,0,3.53,1.16,3.75,3.75,0,0,0,2.5-.78,2.7,2.7,0,0,0,.93-2.19,3.48,3.48,0,0,0-.24-1.34,2.49,2.49,0,0,0-.63-0.92,3,3,0,0,0-1-.57,6.32,6.32,0,0,0-1.26-.3,13.64,13.64,0,0,0-1.5-.11H579.3v-1.56h0.53a12.73,12.73,0,0,0,1.29-.08,6.28,6.28,0,0,0,1.12-.25,2.83,2.83,0,0,0,.93-0.47,2.17,2.17,0,0,0,.6-0.79,2.71,2.71,0,0,0,.23-1.16q0-2.52-2.88-2.52a6.12,6.12,0,0,0-2,.3,5.08,5.08,0,0,0-1.56.82L577,721a7.35,7.35,0,0,1,4.5-1.19,5.49,5.49,0,0,1,2.19.44,4,4,0,0,1,1.66,1.33,3.49,3.49,0,0,1,.65,2.1,3.86,3.86,0,0,1-.72,2.41,4,4,0,0,1-2,1.35,3.85,3.85,0,0,1,2.3,1.38,4.21,4.21,0,0,1,.83,2.69,4.1,4.1,0,0,1-1.48,3.3A5.72,5.72,0,0,1,581.12,736Z"/></g><g class="cls-4"><path class="cls-6" d="M571.16,767a4.5,4.5,0,0,1,2.64.78,4.72,4.72,0,0,1,1.67,2.11,7.88,7.88,0,0,1,.56,3.05,8.28,8.28,0,0,1-.55,3.14,4.69,4.69,0,0,1-1.67,2.13,4.55,4.55,0,0,1-2.67.78,4.42,4.42,0,0,1-2.09-.49,4.55,4.55,0,0,1-1.57-1.34l-0.18,1.59h-1.5v-16l1.75-.11v3.81q0,1.4,0,2.41A4.48,4.48,0,0,1,571.16,767ZM571,768.44a3,3,0,0,0-2.55,1.15,5.45,5.45,0,0,0-.89,3.37q0,4.55,3.43,4.55a3.07,3.07,0,0,0,1.49-.35,2.6,2.6,0,0,0,1-1,5,5,0,0,0,.56-1.43,8,8,0,0,0,.18-1.77,7.72,7.72,0,0,0-.31-2.31,3.33,3.33,0,0,0-1.05-1.61A2.84,2.84,0,0,0,571,768.44Z"/><path class="cls-6" d="M588.62,773a6.43,6.43,0,0,1-1.43,4.34,4.92,4.92,0,0,1-3.94,1.66,4.81,4.81,0,0,1-3.85-1.68,7.24,7.24,0,0,1,0-8.65,5,5,0,0,1,3.94-1.66,4.8,4.8,0,0,1,3.87,1.66A6.48,6.48,0,0,1,588.62,773Zm-8.84,0a5.4,5.4,0,0,0,.91,3.28,3.08,3.08,0,0,0,2.65,1.23,3,3,0,0,0,2.6-1.23,6.74,6.74,0,0,0,0-6.62,3.44,3.44,0,0,0-5.26,0A5.51,5.51,0,0,0,579.77,773Z"/><path class="cls-6" d="M599,777.06a4.09,4.09,0,0,1-1.51,1.38,4.68,4.68,0,0,1-5.67-1.11,6.9,6.9,0,0,1-1.29-4.41,6.69,6.69,0,0,1,1.31-4.3,4.26,4.26,0,0,1,3.51-1.64,4.82,4.82,0,0,1,2.16.5,3.53,3.53,0,0,1,1.52,1.34l0-1v-5.07l1.73-.11v16.08h-1.49Zm-3.45.4a3,3,0,0,0,2.58-1.11,5.17,5.17,0,0,0,.84-3.18,6.21,6.21,0,0,0-.81-3.51,3,3,0,0,0-2.63-1.18,2.88,2.88,0,0,0-1.43.35,2.7,2.7,0,0,0-1,1,5,5,0,0,0-.57,1.42,7.5,7.5,0,0,0-.19,1.76,7.33,7.33,0,0,0,.33,2.33,3.31,3.31,0,0,0,1.06,1.57A2.82,2.82,0,0,0,595.58,777.46Z"/><path class="cls-6" d="M602.33,767.23h1.86l3.63,9.58,3.23-9.58h1.86q-4.66,12.82-4.82,13.22a6.47,6.47,0,0,1-1.75,2.66,4.13,4.13,0,0,1-2.71.84,7.26,7.26,0,0,1-1.06-.08l-0.1-1.49,0.88,0a3.09,3.09,0,0,0,1.8-.44,3.61,3.61,0,0,0,1.1-1.63q0.43-1.1.64-1.7Z"/></g><g class="cls-4"><path class="cls-7" d="M653.16,649.83l-0.24-1.72,5.42-6a7.81,7.81,0,0,0,1.05-1.57,12,12,0,0,0,.74-1.64l0.24-.66a2.72,2.72,0,0,0-.72-2,2.8,2.8,0,0,0-2.06-.72,4.71,4.71,0,0,0-3.5,1.29l-0.61-1.57a6,6,0,0,1,4.24-1.36,4.87,4.87,0,0,1,3.41,1.16,4,4,0,0,1,1.27,3.1c0,0.1-.07.23-0.13,0.39s-0.18.48-.36,1-0.38.93-.58,1.35a15.87,15.87,0,0,1-.77,1.41,7.83,7.83,0,0,1-.95,1.28l-4.43,4.73h7.27l-0.12,1.62h-9.18Z"/><path class="cls-7" d="M672.65,649.46a5.17,5.17,0,0,1-4.88,0,4.6,4.6,0,0,1-1.68-1.73,8.86,8.86,0,0,1-.94-2.56,15.4,15.4,0,0,1-.31-3.22,16.62,16.62,0,0,1,.2-2.7,9.75,9.75,0,0,1,.63-2.25,6.13,6.13,0,0,1,1.06-1.71,4.37,4.37,0,0,1,1.52-1.09,4.86,4.86,0,0,1,2-.38,4.71,4.71,0,0,1,2.38.59,4.56,4.56,0,0,1,1.68,1.67,8.64,8.64,0,0,1,1,2.56,15.35,15.35,0,0,1,.33,3.3,15.75,15.75,0,0,1-.3,3.22,8.88,8.88,0,0,1-.93,2.56A4.57,4.57,0,0,1,672.65,649.46ZM672,636.27a2.42,2.42,0,0,0-3.67,0,5.42,5.42,0,0,0-1.15,2.29,13.07,13.07,0,0,0-.38,3.33,13.57,13.57,0,0,0,.38,3.39,5.58,5.58,0,0,0,1.15,2.33,2.39,2.39,0,0,0,3.67,0,5.56,5.56,0,0,0,1.15-2.33,13.57,13.57,0,0,0,.38-3.39,13.07,13.07,0,0,0-.38-3.33A5.41,5.41,0,0,0,672,636.27Z"/><path class="cls-7" d="M685.66,649.46a5.17,5.17,0,0,1-4.88,0,4.6,4.6,0,0,1-1.68-1.73,8.86,8.86,0,0,1-.94-2.56,15.4,15.4,0,0,1-.31-3.22,16.62,16.62,0,0,1,.2-2.7,9.75,9.75,0,0,1,.63-2.25,6.13,6.13,0,0,1,1.06-1.71,4.37,4.37,0,0,1,1.52-1.09,4.86,4.86,0,0,1,2-.38,4.71,4.71,0,0,1,2.38.59,4.56,4.56,0,0,1,1.68,1.67,8.64,8.64,0,0,1,1,2.56,15.35,15.35,0,0,1,.33,3.3,15.75,15.75,0,0,1-.3,3.22,8.88,8.88,0,0,1-.93,2.56A4.57,4.57,0,0,1,685.66,649.46Zm-0.6-13.19a2.42,2.42,0,0,0-3.67,0,5.42,5.42,0,0,0-1.15,2.29,13.07,13.07,0,0,0-.38,3.33,13.57,13.57,0,0,0,.38,3.39,5.58,5.58,0,0,0,1.15,2.33,2.39,2.39,0,0,0,3.67,0,5.56,5.56,0,0,0,1.15-2.33,13.57,13.57,0,0,0,.38-3.39,13.07,13.07,0,0,0-.38-3.33A5.41,5.41,0,0,0,685.06,636.27Z"/><path class="cls-7" d="M694.12,634.21a3,3,0,0,1,2.44,1.14,4.48,4.48,0,0,1,.92,2.9,4.28,4.28,0,0,1-.92,2.83,3,3,0,0,1-2.43,1.11,3,3,0,0,1-2.42-1.11,4.35,4.35,0,0,1-.9-2.84,4.51,4.51,0,0,1,.91-2.89A2.93,2.93,0,0,1,694.12,634.21Zm0,1.16a1.65,1.65,0,0,0-1.47.84,3.76,3.76,0,0,0-.52,2,3.42,3.42,0,0,0,.52,2,1.8,1.8,0,0,0,3,0,3.41,3.41,0,0,0,.52-1.95,3.71,3.71,0,0,0-.54-2A1.66,1.66,0,0,0,694.12,635.38Zm-0.2,14.5,8.34-15.38H704l-8.62,15.38h-1.42Zm10.8-8a3.42,3.42,0,0,1,2.74,1.12,4.83,4.83,0,0,1,0,5.82,3.85,3.85,0,0,1-5.45,0,4.83,4.83,0,0,1,0-5.8A3.39,3.39,0,0,1,704.73,641.92Zm1.75,2a2.26,2.26,0,0,0-3.49,0,3.58,3.58,0,0,0,0,4,2.26,2.26,0,0,0,3.49,0A3.58,3.58,0,0,0,706.47,643.94Z"/></g><g class="cls-4"><path class="cls-7" d="M655.14,677.11h1.67V692.8H655V679.05a10.7,10.7,0,0,1-2.59,1.19v-1.75l0.68-.29,0.77-.34,0.65-.32A6.85,6.85,0,0,0,655.14,677.11Z"/><path class="cls-7" d="M669.07,677.11l-0.15,1.72h-6.41q-0.11,3-.16,4.94a4.69,4.69,0,0,1,2.57-.76,5.51,5.51,0,0,1,2.08.37,4,4,0,0,1,1.5,1,4.47,4.47,0,0,1,.89,1.52,5.59,5.59,0,0,1,.3,1.87,5,5,0,0,1-1.53,3.81A5.83,5.83,0,0,1,664,693a6,6,0,0,1-4.22-1.44l0.68-1.48a5.67,5.67,0,0,0,3.6,1.22,3.72,3.72,0,0,0,2.72-1,3.41,3.41,0,0,0,1-2.55,3,3,0,0,0-3.23-3.16,3.21,3.21,0,0,0-2.5,1l-1.46-.2,0.41-8.39h8Z"/><path class="cls-7" d="M679.85,692.43a5.17,5.17,0,0,1-4.88,0,4.6,4.6,0,0,1-1.68-1.73,8.86,8.86,0,0,1-.94-2.56,15.4,15.4,0,0,1-.31-3.22,16.62,16.62,0,0,1,.2-2.7,9.75,9.75,0,0,1,.63-2.25,6.13,6.13,0,0,1,1.06-1.71,4.37,4.37,0,0,1,1.52-1.09,4.86,4.86,0,0,1,2-.38,4.71,4.71,0,0,1,2.38.59,4.56,4.56,0,0,1,1.68,1.67,8.64,8.64,0,0,1,1,2.56,15.35,15.35,0,0,1,.33,3.3,15.75,15.75,0,0,1-.3,3.22,8.88,8.88,0,0,1-.93,2.56A4.57,4.57,0,0,1,679.85,692.43Zm-0.6-13.19a2.42,2.42,0,0,0-3.67,0,5.42,5.42,0,0,0-1.15,2.29,13.07,13.07,0,0,0-.38,3.33,13.57,13.57,0,0,0,.38,3.39,5.58,5.58,0,0,0,1.15,2.33,2.39,2.39,0,0,0,3.67,0,5.56,5.56,0,0,0,1.15-2.33,13.57,13.57,0,0,0,.38-3.39,13.07,13.07,0,0,0-.38-3.33A5.41,5.41,0,0,0,679.25,679.25Z"/><path class="cls-7" d="M688.31,677.19a3,3,0,0,1,2.44,1.14,4.48,4.48,0,0,1,.92,2.9,4.28,4.28,0,0,1-.92,2.83,3,3,0,0,1-2.43,1.11,3,3,0,0,1-2.42-1.11,4.35,4.35,0,0,1-.9-2.84,4.51,4.51,0,0,1,.91-2.89A2.93,2.93,0,0,1,688.31,677.19Zm0,1.16a1.65,1.65,0,0,0-1.47.84,3.76,3.76,0,0,0-.52,2,3.42,3.42,0,0,0,.52,2,1.8,1.8,0,0,0,3,0,3.41,3.41,0,0,0,.52-1.95,3.71,3.71,0,0,0-.54-2A1.66,1.66,0,0,0,688.31,678.35Zm-0.2,14.5,8.34-15.38h1.7l-8.62,15.38h-1.42Zm10.8-8a3.42,3.42,0,0,1,2.74,1.12,4.83,4.83,0,0,1,0,5.82,3.85,3.85,0,0,1-5.45,0,4.83,4.83,0,0,1,0-5.8A3.39,3.39,0,0,1,698.92,684.9Zm1.75,2a2.26,2.26,0,0,0-3.49,0,3.58,3.58,0,0,0,0,4,2.26,2.26,0,0,0,3.49,0A3.58,3.58,0,0,0,700.66,686.91Z"/></g><g class="cls-4"><path class="cls-7" d="M655.14,720.07h1.67v15.69H655V722a10.85,10.85,0,0,1-2.59,1.19v-1.75l0.68-.29,0.77-.33,0.65-.33A6.51,6.51,0,0,0,655.14,720.07Z"/><path class="cls-7" d="M661.71,720.07h1.67v15.69h-1.86V722a10.85,10.85,0,0,1-2.59,1.19v-1.75l0.68-.29,0.77-.33,0.65-.33A6.51,6.51,0,0,0,661.71,720.07Z"/><path class="cls-7" d="M666.29,735.77L666.05,734l5.42-6a7.8,7.8,0,0,0,1.05-1.57,12.13,12.13,0,0,0,.74-1.64l0.24-.66a2.72,2.72,0,0,0-.72-2,2.79,2.79,0,0,0-2.06-.72,4.71,4.71,0,0,0-3.5,1.29l-0.61-1.57a6,6,0,0,1,4.24-1.37,4.86,4.86,0,0,1,3.41,1.16,4,4,0,0,1,1.27,3.1l-0.13.39c-0.06.17-.18,0.48-0.36,1s-0.38.93-.58,1.35a15.86,15.86,0,0,1-.77,1.4,7.74,7.74,0,0,1-.95,1.28l-4.43,4.73h7.27l-0.12,1.62h-9.18Z"/><path class="cls-7" d="M679.55,735.89a1.3,1.3,0,0,1-1-.41,1.46,1.46,0,0,1,0-1.95,1.49,1.49,0,0,1,2.06,0,1.48,1.48,0,0,1,0,2A1.31,1.31,0,0,1,679.55,735.89Z"/><path class="cls-7" d="M692.53,720.07l-0.15,1.72H686q-0.11,3.05-.16,4.94a4.69,4.69,0,0,1,2.57-.76,5.51,5.51,0,0,1,2.08.37,4,4,0,0,1,1.5,1,4.48,4.48,0,0,1,.89,1.52,5.61,5.61,0,0,1,.3,1.87,5,5,0,0,1-1.53,3.81,5.82,5.82,0,0,1-4.15,1.43,6,6,0,0,1-4.22-1.44l0.68-1.48a5.66,5.66,0,0,0,3.6,1.22,3.72,3.72,0,0,0,2.72-1,3.41,3.41,0,0,0,1-2.55,3,3,0,0,0-3.23-3.16,3.21,3.21,0,0,0-2.5,1l-1.46-.2,0.41-8.39h8Z"/><path class="cls-7" d="M698.75,720.15a3,3,0,0,1,2.44,1.14,4.47,4.47,0,0,1,.92,2.9,4.29,4.29,0,0,1-.92,2.83,3,3,0,0,1-2.43,1.11,3,3,0,0,1-2.42-1.11,4.34,4.34,0,0,1-.9-2.84,4.52,4.52,0,0,1,.91-2.9A2.93,2.93,0,0,1,698.75,720.15Zm0,1.16a1.64,1.64,0,0,0-1.47.84,3.75,3.75,0,0,0-.52,2,3.43,3.43,0,0,0,.52,2,1.8,1.8,0,0,0,3,0,3.42,3.42,0,0,0,.52-1.95,3.71,3.71,0,0,0-.54-2A1.66,1.66,0,0,0,698.75,721.31Zm-0.2,14.5,8.34-15.38h1.7L700,735.81h-1.42Zm10.8-8a3.42,3.42,0,0,1,2.74,1.12,4.31,4.31,0,0,1,1,2.92,4.26,4.26,0,0,1-1,2.89,3.85,3.85,0,0,1-5.45,0,4.83,4.83,0,0,1,0-5.81A3.4,3.4,0,0,1,709.35,727.86Zm1.75,2a2.27,2.27,0,0,0-3.49,0,3.58,3.58,0,0,0,0,4,2.27,2.27,0,0,0,3.49,0A3.58,3.58,0,0,0,711.1,729.87Z"/></g><g class="cls-4"><path class="cls-7" d="M655.14,763h1.67v15.69H655V765a10.7,10.7,0,0,1-2.59,1.19v-1.75l0.68-.29,0.77-.34,0.65-.32A6.85,6.85,0,0,0,655.14,763Z"/><path class="cls-7" d="M667.51,778.36a5.17,5.17,0,0,1-4.88,0,4.6,4.6,0,0,1-1.68-1.73,8.86,8.86,0,0,1-.94-2.56,15.4,15.4,0,0,1-.31-3.22,16.62,16.62,0,0,1,.2-2.7,9.75,9.75,0,0,1,.63-2.25,6.13,6.13,0,0,1,1.06-1.71,4.37,4.37,0,0,1,1.52-1.09,4.86,4.86,0,0,1,2-.38,4.71,4.71,0,0,1,2.38.59,4.56,4.56,0,0,1,1.68,1.67,8.64,8.64,0,0,1,1,2.56,15.35,15.35,0,0,1,.33,3.3,15.75,15.75,0,0,1-.3,3.22,8.88,8.88,0,0,1-.93,2.56A4.57,4.57,0,0,1,667.51,778.36Zm-0.6-13.19a2.42,2.42,0,0,0-3.67,0,5.42,5.42,0,0,0-1.15,2.29,13.07,13.07,0,0,0-.38,3.33,13.57,13.57,0,0,0,.38,3.39,5.58,5.58,0,0,0,1.15,2.33,2.39,2.39,0,0,0,3.67,0,5.56,5.56,0,0,0,1.15-2.33,13.57,13.57,0,0,0,.38-3.39,13.07,13.07,0,0,0-.38-3.33A5.41,5.41,0,0,0,666.9,765.18Z"/><path class="cls-7" d="M680.52,778.36a5.17,5.17,0,0,1-4.88,0,4.6,4.6,0,0,1-1.68-1.73,8.86,8.86,0,0,1-.94-2.56,15.4,15.4,0,0,1-.31-3.22,16.62,16.62,0,0,1,.2-2.7,9.75,9.75,0,0,1,.63-2.25,6.13,6.13,0,0,1,1.06-1.71,4.37,4.37,0,0,1,1.52-1.09,4.86,4.86,0,0,1,2-.38,4.71,4.71,0,0,1,2.38.59,4.56,4.56,0,0,1,1.68,1.67,8.64,8.64,0,0,1,1,2.56,15.35,15.35,0,0,1,.33,3.3,15.75,15.75,0,0,1-.3,3.22,8.88,8.88,0,0,1-.93,2.56A4.57,4.57,0,0,1,680.52,778.36Zm-0.6-13.19a2.42,2.42,0,0,0-3.67,0,5.42,5.42,0,0,0-1.15,2.29,13.07,13.07,0,0,0-.38,3.33,13.57,13.57,0,0,0,.38,3.39,5.58,5.58,0,0,0,1.15,2.33,2.39,2.39,0,0,0,3.67,0,5.56,5.56,0,0,0,1.15-2.33,13.57,13.57,0,0,0,.38-3.39,13.07,13.07,0,0,0-.38-3.33A5.41,5.41,0,0,0,679.92,765.18Z"/><path class="cls-7" d="M689,763.11a3,3,0,0,1,2.44,1.14,4.48,4.48,0,0,1,.92,2.9,4.28,4.28,0,0,1-.92,2.83A3,3,0,0,1,689,771.1a3,3,0,0,1-2.42-1.11,4.35,4.35,0,0,1-.9-2.84,4.51,4.51,0,0,1,.91-2.89A2.93,2.93,0,0,1,689,763.11Zm0,1.16a1.65,1.65,0,0,0-1.47.84,3.76,3.76,0,0,0-.52,2,3.42,3.42,0,0,0,.52,2,1.8,1.8,0,0,0,3,0,3.41,3.41,0,0,0,.52-1.95,3.71,3.71,0,0,0-.54-2A1.66,1.66,0,0,0,689,764.28Zm-0.2,14.5,8.34-15.38h1.7l-8.62,15.38h-1.42Zm10.8-8a3.42,3.42,0,0,1,2.74,1.12,4.83,4.83,0,0,1,0,5.82,3.85,3.85,0,0,1-5.45,0,4.83,4.83,0,0,1,0-5.8A3.39,3.39,0,0,1,699.59,770.82Zm1.75,2a2.26,2.26,0,0,0-3.49,0,3.58,3.58,0,0,0,0,4,2.26,2.26,0,0,0,3.49,0A3.58,3.58,0,0,0,701.33,772.84Z"/></g><g class="cls-4"><path class="cls-6" d="M842.39,649.83v-7a4.47,4.47,0,0,0-.55-2.52,2.18,2.18,0,0,0-1.92-.79,3.69,3.69,0,0,0-2.23.66,3,3,0,0,0-1.18,1.71,14.85,14.85,0,0,0-.09,1.75v6.14h-1.75v-16l1.75-.11v4.68q0,0.6,0,1.48a4.8,4.8,0,0,1,3.92-1.83q3.85,0,3.85,4.52v7.23h-1.75Z"/><path class="cls-6" d="M848,634.14h1.67v15.69h-1.86V636.08a10.7,10.7,0,0,1-2.59,1.19v-1.75l0.68-.29,0.77-.34,0.65-.32A6.85,6.85,0,0,0,848,634.14Z"/></g><g class="cls-4"><path class="cls-6" d="M842.39,692.8v-7a4.47,4.47,0,0,0-.55-2.52,2.18,2.18,0,0,0-1.92-.79,3.69,3.69,0,0,0-2.23.66,3,3,0,0,0-1.18,1.71,14.85,14.85,0,0,0-.09,1.75v6.14h-1.75v-16l1.75-.11v4.68q0,0.6,0,1.48a4.8,4.8,0,0,1,3.92-1.83q3.85,0,3.85,4.52v7.23h-1.75Z"/><path class="cls-6" d="M846,692.8l-0.24-1.72,5.42-6a7.81,7.81,0,0,0,1.05-1.57,12,12,0,0,0,.74-1.64l0.24-.66a2.72,2.72,0,0,0-.72-2,2.8,2.8,0,0,0-2.06-.72,4.71,4.71,0,0,0-3.5,1.29l-0.61-1.57a6,6,0,0,1,4.24-1.36A4.87,4.87,0,0,1,854,678a4,4,0,0,1,1.27,3.1c0,0.1-.07.23-0.13,0.39s-0.18.48-.36,1-0.38.93-.58,1.35a15.87,15.87,0,0,1-.77,1.41,7.83,7.83,0,0,1-.95,1.28L848,691.19h7.27l-0.12,1.62H846Z"/></g><g class="cls-4"><path class="cls-6" d="M842.39,735.77v-7a4.48,4.48,0,0,0-.55-2.52,2.19,2.19,0,0,0-1.92-.79,3.68,3.68,0,0,0-2.23.66,3,3,0,0,0-1.18,1.71,14.91,14.91,0,0,0-.09,1.75v6.14h-1.75v-16l1.75-.1v4.68q0,0.6,0,1.48a4.8,4.8,0,0,1,3.92-1.82q3.85,0,3.85,4.52v7.23h-1.75Z"/><path class="cls-6" d="M850,736a7.82,7.82,0,0,1-2.5-.37,4.28,4.28,0,0,1-1.6-.85l0.59-1.54a5.53,5.53,0,0,0,3.52,1.16,3.75,3.75,0,0,0,2.5-.78,2.7,2.7,0,0,0,.93-2.19,3.49,3.49,0,0,0-.24-1.34,2.49,2.49,0,0,0-.63-0.92,3,3,0,0,0-1-.57,6.35,6.35,0,0,0-1.26-.3,13.64,13.64,0,0,0-1.5-.11h-0.63v-1.56h0.53a12.71,12.71,0,0,0,1.29-.08,6.25,6.25,0,0,0,1.12-.25,2.84,2.84,0,0,0,.93-0.47,2.15,2.15,0,0,0,.6-0.79,2.71,2.71,0,0,0,.23-1.16q0-2.52-2.88-2.52a6.12,6.12,0,0,0-2,.3,5.08,5.08,0,0,0-1.56.82L845.9,721a7.35,7.35,0,0,1,4.5-1.19,5.49,5.49,0,0,1,2.19.44,4,4,0,0,1,1.66,1.33,3.49,3.49,0,0,1,.65,2.1,3.86,3.86,0,0,1-.72,2.41,4,4,0,0,1-2,1.35,3.85,3.85,0,0,1,2.3,1.38,4.21,4.21,0,0,1,.83,2.69,4.09,4.09,0,0,1-1.48,3.3A5.72,5.72,0,0,1,850,736Z"/></g><g class="cls-4"><path class="cls-6" d="M840,767a4.5,4.5,0,0,1,2.64.78,4.72,4.72,0,0,1,1.67,2.11,7.86,7.86,0,0,1,.56,3.05,8.28,8.28,0,0,1-.55,3.14,4.7,4.7,0,0,1-1.67,2.13A4.55,4.55,0,0,1,840,779a4.42,4.42,0,0,1-2.09-.49,4.55,4.55,0,0,1-1.57-1.34l-0.18,1.59h-1.5v-16l1.75-.11v3.81q0,1.4,0,2.41A4.48,4.48,0,0,1,840,767Zm-0.18,1.46a3,3,0,0,0-2.55,1.15,5.45,5.45,0,0,0-.89,3.37q0,4.55,3.43,4.55a3.08,3.08,0,0,0,1.5-.35,2.61,2.61,0,0,0,1-1,5,5,0,0,0,.56-1.43,7.92,7.92,0,0,0,.18-1.77,7.75,7.75,0,0,0-.31-2.31,3.34,3.34,0,0,0-1.05-1.61A2.84,2.84,0,0,0,839.87,768.44Z"/><path class="cls-6" d="M857.5,773a6.43,6.43,0,0,1-1.43,4.34,4.92,4.92,0,0,1-3.94,1.66,4.81,4.81,0,0,1-3.86-1.68,7.24,7.24,0,0,1,0-8.65,5,5,0,0,1,3.94-1.66,4.8,4.8,0,0,1,3.87,1.66A6.47,6.47,0,0,1,857.5,773Zm-8.84,0a5.4,5.4,0,0,0,.91,3.28,3.08,3.08,0,0,0,2.65,1.23,3,3,0,0,0,2.6-1.23,6.74,6.74,0,0,0,0-6.62,3.44,3.44,0,0,0-5.26,0A5.51,5.51,0,0,0,848.66,773Z"/><path class="cls-6" d="M867.92,777.06a4.09,4.09,0,0,1-1.51,1.38,4.68,4.68,0,0,1-5.67-1.11,6.9,6.9,0,0,1-1.29-4.41,6.69,6.69,0,0,1,1.31-4.3,4.26,4.26,0,0,1,3.51-1.64,4.82,4.82,0,0,1,2.16.5,3.53,3.53,0,0,1,1.52,1.34l0-1v-5.07l1.73-.11v16.08h-1.49Zm-3.45.4a3,3,0,0,0,2.58-1.11,5.17,5.17,0,0,0,.84-3.18,6.21,6.21,0,0,0-.81-3.51,3,3,0,0,0-2.63-1.18,2.87,2.87,0,0,0-1.43.35,2.68,2.68,0,0,0-1,1,5,5,0,0,0-.57,1.42,7.5,7.5,0,0,0-.19,1.76,7.33,7.33,0,0,0,.33,2.33,3.3,3.3,0,0,0,1.06,1.57A2.82,2.82,0,0,0,864.47,777.46Z"/><path class="cls-6" d="M871.21,767.23h1.86l3.63,9.58,3.23-9.58h1.86Q877.13,780,877,780.44a6.47,6.47,0,0,1-1.75,2.66,4.13,4.13,0,0,1-2.71.84,7.27,7.27,0,0,1-1.06-.08l-0.1-1.49,0.88,0A3.09,3.09,0,0,0,874,782a3.61,3.61,0,0,0,1.1-1.63q0.43-1.1.64-1.7Z"/></g><g class="cls-4"><path class="cls-6" d="M834.64,826.69v-16.5h1.54l0.17,1.56A4.59,4.59,0,0,1,840,810a4.44,4.44,0,0,1,2.67.79,4.6,4.6,0,0,1,1.61,2.13,8.65,8.65,0,0,1,.52,3.13,7.77,7.77,0,0,1-.57,3.06,4.81,4.81,0,0,1-1.66,2.11,4.35,4.35,0,0,1-2.57.77,4.52,4.52,0,0,1-2.09-.5,4.29,4.29,0,0,1-1.56-1.32q0.06,1.13.06,2.2v4.25Zm5.1-6.23a2.82,2.82,0,0,0,1.43-.36,2.85,2.85,0,0,0,1-1,5,5,0,0,0,.59-1.43,7.24,7.24,0,0,0,.2-1.74,5.8,5.8,0,0,0-.83-3.24,2.72,2.72,0,0,0-2.42-1.26q-3.34,0-3.34,4.31a6.45,6.45,0,0,0,.78,3.52A2.85,2.85,0,0,0,839.73,820.46Z"/></g><g class="cls-4"><path class="cls-7" d="M922,649.83l-0.24-1.72,5.42-6a7.81,7.81,0,0,0,1.05-1.57,12,12,0,0,0,.74-1.64l0.24-.66a2.72,2.72,0,0,0-.72-2,2.8,2.8,0,0,0-2.06-.72,4.71,4.71,0,0,0-3.5,1.29l-0.61-1.57a6,6,0,0,1,4.24-1.36A4.87,4.87,0,0,1,930,635a4,4,0,0,1,1.27,3.1c0,0.1-.07.23-0.13,0.39s-0.18.48-.36,1-0.38.93-.58,1.35a15.87,15.87,0,0,1-.77,1.41,7.83,7.83,0,0,1-.95,1.28l-4.43,4.73h7.27l-0.12,1.62H922Z"/><path class="cls-7" d="M944.29,650.07a5.05,5.05,0,0,1-3.95-1.6,6.26,6.26,0,0,1-1.44-4.36,6.52,6.52,0,0,1,1.4-4.34,4.65,4.65,0,0,1,3.67-1.69,4.24,4.24,0,0,1,3.39,1.46,5.81,5.81,0,0,1,1.25,3.91c0,0.08,0,.24,0,0.46s0,0.38,0,.48h-7.9a4.54,4.54,0,0,0,1,3.06,3.36,3.36,0,0,0,2.64,1.1,7.82,7.82,0,0,0,3.66-1l0.27,1.42A7.52,7.52,0,0,1,944.29,650.07Zm1.77-9.62a2.61,2.61,0,0,0-2.11-.92,2.81,2.81,0,0,0-2.19.95,4.36,4.36,0,0,0-1,2.6h6.07A4,4,0,0,0,946.06,640.45Z"/><path class="cls-7" d="M965.66,649.83v-6q0-.84,0-1.41a7.5,7.5,0,0,0-.17-1.15,2.64,2.64,0,0,0-.37-0.93,1.77,1.77,0,0,0-.66-0.56,2.2,2.2,0,0,0-1-.21,3.15,3.15,0,0,0-2,.62,3.35,3.35,0,0,0-1.16,1.74,12.91,12.91,0,0,0-.09,1.62v6.27h-1.75v-6.18q0-.78-0.05-1.35a6.52,6.52,0,0,0-.2-1.11,2.67,2.67,0,0,0-.39-0.88,1.76,1.76,0,0,0-.66-0.54,2.21,2.21,0,0,0-1-.2,3.42,3.42,0,0,0-2.11.64,3.08,3.08,0,0,0-1.15,1.7,15.22,15.22,0,0,0-.09,1.75v6.16h-1.75q0-10.79,0-11.51h1.47l0.22,1.65a4.25,4.25,0,0,1,1.49-1.34,4.38,4.38,0,0,1,2.19-.54,5.08,5.08,0,0,1,1.18.13,3.7,3.7,0,0,1,.9.33,2.93,2.93,0,0,1,.64.48,2.68,2.68,0,0,1,.44.54,3.26,3.26,0,0,1,.26.56,4.21,4.21,0,0,1,3.85-2,3.43,3.43,0,0,1,2.82,1.1,5,5,0,0,1,.9,3.25v7.4h-1.75Z"/></g><g class="cls-4"><path class="cls-7" d="M924,677.11h1.67V692.8h-1.86V679.05a10.7,10.7,0,0,1-2.59,1.19v-1.75l0.68-.29,0.77-.34,0.65-.32A6.85,6.85,0,0,0,924,677.11Z"/><path class="cls-7" d="M930.16,692.93a1.31,1.31,0,0,1-1-.41,1.47,1.47,0,0,1,0-1.95,1.5,1.5,0,0,1,2.06,0,1.48,1.48,0,0,1,0,2A1.31,1.31,0,0,1,930.16,692.93Z"/><path class="cls-7" d="M943.14,677.11L943,678.83h-6.41q-0.11,3-.16,4.94A4.69,4.69,0,0,1,939,683a5.51,5.51,0,0,1,2.08.37,4,4,0,0,1,1.5,1,4.47,4.47,0,0,1,.89,1.52,5.59,5.59,0,0,1,.3,1.87,5,5,0,0,1-1.53,3.81,5.83,5.83,0,0,1-4.15,1.43,6,6,0,0,1-4.22-1.44l0.68-1.48a5.67,5.67,0,0,0,3.6,1.22,3.72,3.72,0,0,0,2.72-1,3.41,3.41,0,0,0,1-2.55,3,3,0,0,0-3.23-3.16,3.21,3.21,0,0,0-2.5,1l-1.46-.2,0.41-8.39h8Z"/><path class="cls-7" d="M956.68,693a5.05,5.05,0,0,1-3.95-1.6,6.26,6.26,0,0,1-1.44-4.36,6.52,6.52,0,0,1,1.4-4.34,4.65,4.65,0,0,1,3.67-1.69,4.24,4.24,0,0,1,3.39,1.46,5.81,5.81,0,0,1,1.25,3.91c0,0.08,0,.24,0,0.46s0,0.38,0,.48h-7.9a4.54,4.54,0,0,0,1,3.06,3.36,3.36,0,0,0,2.64,1.1,7.82,7.82,0,0,0,3.66-1l0.27,1.42A7.52,7.52,0,0,1,956.68,693Zm1.77-9.62a2.61,2.61,0,0,0-2.11-.92,2.81,2.81,0,0,0-2.19.95,4.36,4.36,0,0,0-1,2.6h6.07A4,4,0,0,0,958.45,683.42Z"/><path class="cls-7" d="M978,692.8v-6q0-.84,0-1.41a7.5,7.5,0,0,0-.17-1.15,2.64,2.64,0,0,0-.37-0.93,1.77,1.77,0,0,0-.66-0.56,2.2,2.2,0,0,0-1-.21,3.15,3.15,0,0,0-2,.62,3.35,3.35,0,0,0-1.16,1.74,12.91,12.91,0,0,0-.09,1.62v6.27h-1.75v-6.18q0-.78-0.05-1.35a6.52,6.52,0,0,0-.2-1.11,2.67,2.67,0,0,0-.39-0.88,1.76,1.76,0,0,0-.66-0.54,2.21,2.21,0,0,0-1-.2,3.42,3.42,0,0,0-2.11.64,3.08,3.08,0,0,0-1.15,1.7,15.22,15.22,0,0,0-.09,1.75v6.16h-1.75q0-10.79,0-11.51h1.47l0.22,1.65a4.25,4.25,0,0,1,1.49-1.34,4.38,4.38,0,0,1,2.19-.54,5.08,5.08,0,0,1,1.18.13,3.7,3.7,0,0,1,.9.33,2.93,2.93,0,0,1,.64.48,2.68,2.68,0,0,1,.44.54,3.26,3.26,0,0,1,.26.56,4.21,4.21,0,0,1,3.85-2,3.43,3.43,0,0,1,2.82,1.1,5,5,0,0,1,.9,3.25v7.4H978Z"/></g><g class="cls-4"><path class="cls-7" d="M924,720.07h1.67v15.69h-1.86V722a10.85,10.85,0,0,1-2.59,1.19v-1.75l0.68-.29,0.77-.33,0.65-.33A6.51,6.51,0,0,0,924,720.07Z"/><path class="cls-7" d="M930.16,735.89a1.3,1.3,0,0,1-1-.41,1.46,1.46,0,0,1,0-1.95,1.49,1.49,0,0,1,2.06,0,1.48,1.48,0,0,1,0,2A1.31,1.31,0,0,1,930.16,735.89Z"/><path class="cls-7" d="M935.77,720.07h1.67v15.69h-1.86V722A10.85,10.85,0,0,1,933,723.2v-1.75l0.68-.29,0.77-.33,0.65-.33A6.51,6.51,0,0,0,935.77,720.07Z"/><path class="cls-7" d="M940.36,735.77L940.12,734l5.42-6a7.8,7.8,0,0,0,1.05-1.57,12.13,12.13,0,0,0,.74-1.64l0.24-.66a2.72,2.72,0,0,0-.72-2,2.79,2.79,0,0,0-2.06-.72,4.71,4.71,0,0,0-3.5,1.29l-0.61-1.57a6,6,0,0,1,4.24-1.37,4.86,4.86,0,0,1,3.41,1.16,4,4,0,0,1,1.27,3.1l-0.13.39c-0.06.17-.18,0.48-0.36,1s-0.38.93-.58,1.35a15.86,15.86,0,0,1-.77,1.4,7.74,7.74,0,0,1-.95,1.28l-4.43,4.73h7.27l-0.12,1.62h-9.18Z"/><path class="cls-7" d="M961.41,720.07l-0.15,1.72h-6.41q-0.11,3.05-.16,4.94a4.69,4.69,0,0,1,2.57-.76,5.51,5.51,0,0,1,2.08.37,4,4,0,0,1,1.5,1,4.48,4.48,0,0,1,.89,1.52,5.61,5.61,0,0,1,.3,1.87,5,5,0,0,1-1.53,3.81,5.82,5.82,0,0,1-4.15,1.43,6,6,0,0,1-4.22-1.44l0.68-1.48a5.66,5.66,0,0,0,3.6,1.22,3.72,3.72,0,0,0,2.72-1,3.41,3.41,0,0,0,1-2.55,3,3,0,0,0-3.23-3.16,3.21,3.21,0,0,0-2.5,1l-1.46-.2,0.41-8.39h8Z"/><path class="cls-7" d="M975,736a5.06,5.06,0,0,1-3.95-1.59,6.26,6.26,0,0,1-1.44-4.36,6.52,6.52,0,0,1,1.4-4.34,4.64,4.64,0,0,1,3.67-1.69,4.23,4.23,0,0,1,3.39,1.46,5.8,5.8,0,0,1,1.25,3.91c0,0.08,0,.24,0,0.46s0,0.38,0,.48h-7.9a4.54,4.54,0,0,0,1,3.06,3.36,3.36,0,0,0,2.64,1.1,7.8,7.8,0,0,0,3.66-1l0.27,1.42A7.5,7.5,0,0,1,975,736Zm1.77-9.62a2.61,2.61,0,0,0-2.11-.92,2.81,2.81,0,0,0-2.19.95,4.36,4.36,0,0,0-1,2.6h6.07A4,4,0,0,0,976.72,726.38Z"/><path class="cls-7" d="M996.32,735.77v-6q0-.84,0-1.41a7.44,7.44,0,0,0-.17-1.15,2.65,2.65,0,0,0-.37-0.93,1.74,1.74,0,0,0-.66-0.55,2.17,2.17,0,0,0-1-.21,3.15,3.15,0,0,0-2,.62,3.36,3.36,0,0,0-1.16,1.74,13,13,0,0,0-.09,1.62v6.27h-1.75v-6.18c0-.52,0-1-0.05-1.35a6.52,6.52,0,0,0-.2-1.11,2.66,2.66,0,0,0-.39-0.87,1.74,1.74,0,0,0-.66-0.54,2.21,2.21,0,0,0-1-.2,3.43,3.43,0,0,0-2.11.64,3.1,3.1,0,0,0-1.15,1.7,15.25,15.25,0,0,0-.09,1.75v6.16h-1.75q0-10.8,0-11.51h1.47l0.22,1.65a4.22,4.22,0,0,1,1.49-1.34,4.38,4.38,0,0,1,2.19-.54,5,5,0,0,1,1.18.13,3.7,3.7,0,0,1,.9.33,2.92,2.92,0,0,1,.64.48,2.63,2.63,0,0,1,.44.55,3.26,3.26,0,0,1,.26.56,4.21,4.21,0,0,1,3.85-2,3.43,3.43,0,0,1,2.82,1.1,5,5,0,0,1,.9,3.25v7.41h-1.75Z"/></g><g class="cls-4"><path class="cls-7" d="M924,763h1.67v15.69h-1.86V765a10.7,10.7,0,0,1-2.59,1.19v-1.75l0.68-.29,0.77-.34,0.65-.32A6.85,6.85,0,0,0,924,763Z"/><path class="cls-7" d="M936.39,778.36a5.17,5.17,0,0,1-4.88,0,4.6,4.6,0,0,1-1.68-1.73,8.86,8.86,0,0,1-.94-2.56,15.4,15.4,0,0,1-.31-3.22,16.62,16.62,0,0,1,.2-2.7,9.75,9.75,0,0,1,.63-2.25,6.13,6.13,0,0,1,1.06-1.71,4.37,4.37,0,0,1,1.52-1.09,4.86,4.86,0,0,1,2-.38,4.71,4.71,0,0,1,2.38.59A4.56,4.56,0,0,1,938,765a8.64,8.64,0,0,1,1,2.56,15.35,15.35,0,0,1,.33,3.3,15.75,15.75,0,0,1-.3,3.22,8.88,8.88,0,0,1-.93,2.56A4.57,4.57,0,0,1,936.39,778.36Zm-0.6-13.19a2.42,2.42,0,0,0-3.67,0,5.42,5.42,0,0,0-1.15,2.29,13.07,13.07,0,0,0-.38,3.33,13.57,13.57,0,0,0,.38,3.39,5.58,5.58,0,0,0,1.15,2.33,2.39,2.39,0,0,0,3.67,0,5.56,5.56,0,0,0,1.15-2.33,13.57,13.57,0,0,0,.38-3.39,13.07,13.07,0,0,0-.38-3.33A5.41,5.41,0,0,0,935.78,765.18Z"/><path class="cls-7" d="M949.4,778.36a5.17,5.17,0,0,1-4.88,0,4.6,4.6,0,0,1-1.68-1.73,8.86,8.86,0,0,1-.94-2.56,15.4,15.4,0,0,1-.31-3.22,16.62,16.62,0,0,1,.2-2.7,9.75,9.75,0,0,1,.63-2.25,6.13,6.13,0,0,1,1.06-1.71,4.37,4.37,0,0,1,1.52-1.09,4.86,4.86,0,0,1,2-.38,4.71,4.71,0,0,1,2.38.59A4.56,4.56,0,0,1,951,765a8.64,8.64,0,0,1,1,2.56,15.35,15.35,0,0,1,.33,3.3,15.75,15.75,0,0,1-.3,3.22,8.88,8.88,0,0,1-.93,2.56A4.57,4.57,0,0,1,949.4,778.36Zm-0.6-13.19a2.42,2.42,0,0,0-3.67,0,5.42,5.42,0,0,0-1.15,2.29,13.07,13.07,0,0,0-.38,3.33,13.57,13.57,0,0,0,.38,3.39,5.58,5.58,0,0,0,1.15,2.33,2.39,2.39,0,0,0,3.67,0,5.56,5.56,0,0,0,1.15-2.33,13.57,13.57,0,0,0,.38-3.39,13.07,13.07,0,0,0-.38-3.33A5.41,5.41,0,0,0,948.8,765.18Z"/><path class="cls-7" d="M957.86,763.11a3,3,0,0,1,2.44,1.14,4.48,4.48,0,0,1,.92,2.9,4.28,4.28,0,0,1-.92,2.83,3,3,0,0,1-2.43,1.11,3,3,0,0,1-2.42-1.11,4.35,4.35,0,0,1-.9-2.84,4.51,4.51,0,0,1,.91-2.89A2.93,2.93,0,0,1,957.86,763.11Zm0,1.16a1.65,1.65,0,0,0-1.47.84,3.76,3.76,0,0,0-.52,2,3.42,3.42,0,0,0,.52,2,1.8,1.8,0,0,0,3,0,3.41,3.41,0,0,0,.52-1.95,3.71,3.71,0,0,0-.54-2A1.66,1.66,0,0,0,957.86,764.28Zm-0.2,14.5L966,763.4h1.7l-8.62,15.38h-1.42Zm10.8-8a3.42,3.42,0,0,1,2.74,1.12,4.83,4.83,0,0,1,0,5.82,3.85,3.85,0,0,1-5.45,0,4.83,4.83,0,0,1,0-5.8A3.39,3.39,0,0,1,968.47,770.82Zm1.75,2a2.26,2.26,0,0,0-3.49,0,3.58,3.58,0,0,0,0,4,2.26,2.26,0,0,0,3.49,0A3.58,3.58,0,0,0,970.22,772.84Z"/></g><g class="cls-4"><path class="cls-7" d="M924,806h1.67V821.7h-1.86V807.95a10.85,10.85,0,0,1-2.59,1.19v-1.75l0.68-.29,0.77-.33,0.65-.33A6.51,6.51,0,0,0,924,806Z"/><path class="cls-7" d="M939.15,821.94a5.06,5.06,0,0,1-3.95-1.59,6.26,6.26,0,0,1-1.44-4.36,6.52,6.52,0,0,1,1.4-4.34,4.64,4.64,0,0,1,3.67-1.69,4.23,4.23,0,0,1,3.39,1.46,5.8,5.8,0,0,1,1.25,3.91c0,0.08,0,.24,0,0.46s0,0.38,0,.48h-7.9a4.54,4.54,0,0,0,1,3.06,3.36,3.36,0,0,0,2.64,1.1,7.8,7.8,0,0,0,3.66-1l0.27,1.42A7.5,7.5,0,0,1,939.15,821.94Zm1.77-9.62a2.61,2.61,0,0,0-2.11-.92,2.81,2.81,0,0,0-2.19.95,4.36,4.36,0,0,0-1,2.6h6.07A4,4,0,0,0,940.92,812.32Z"/><path class="cls-7" d="M960.52,821.7v-6q0-.84,0-1.41a7.44,7.44,0,0,0-.17-1.15,2.65,2.65,0,0,0-.37-0.93,1.74,1.74,0,0,0-.66-0.55,2.17,2.17,0,0,0-1-.21,3.15,3.15,0,0,0-2,.62,3.36,3.36,0,0,0-1.16,1.74,13,13,0,0,0-.09,1.62v6.27h-1.75v-6.18c0-.52,0-1-0.05-1.35a6.52,6.52,0,0,0-.2-1.11,2.66,2.66,0,0,0-.39-0.87,1.74,1.74,0,0,0-.66-0.54,2.21,2.21,0,0,0-1-.2,3.43,3.43,0,0,0-2.11.64,3.1,3.1,0,0,0-1.15,1.7,15.25,15.25,0,0,0-.09,1.75v6.16h-1.75q0-10.8,0-11.51h1.47l0.22,1.65a4.22,4.22,0,0,1,1.49-1.34,4.38,4.38,0,0,1,2.19-.54,5,5,0,0,1,1.18.13,3.7,3.7,0,0,1,.9.33,2.92,2.92,0,0,1,.64.48,2.63,2.63,0,0,1,.44.55,3.26,3.26,0,0,1,.26.56,4.21,4.21,0,0,1,3.85-2,3.43,3.43,0,0,1,2.82,1.1,5,5,0,0,1,.9,3.25v7.41h-1.75Z"/></g></svg>